<?xml version="1.0" encoding="UTF-8"?>
<svg version="1.1" xmlns="http://www.w3.org/2000/svg" width="130" height="30">
<path d="M0 0 C1.59122681 0.02018188 1.59122681 0.02018188 3.21459961 0.04077148 C4.36895508 0.04786133 5.52331055 0.05495117 6.71264648 0.06225586 C7.91856445 0.09512695 9.12448242 0.12799805 10.36694336 0.16186523 C11.57672852 0.16766602 12.78651367 0.1734668 14.03295898 0.17944336 C23.0099688 0.30489067 23.0099688 0.30489067 25.30444336 2.59936523 C25.78895718 6.72587581 25.67483802 10.88515473 25.67944336 15.03686523 C25.70393555 16.19508789 25.72842773 17.35331055 25.75366211 18.54663086 C25.75946289 20.21048828 25.75946289 20.21048828 25.76538086 21.90795898 C25.77359863 22.92688232 25.78181641 23.94580566 25.7902832 24.99560547 C25.30444336 27.59936523 25.30444336 27.59936523 23.43774414 29.43457031 C19.12693131 31.78829977 14.07496238 30.81850568 9.30444336 30.59936523 C8.1997168 30.5800293 7.09499023 30.56069336 5.95678711 30.54077148 C4.89588867 30.49823242 3.83499023 30.45569336 2.74194336 30.41186523 C1.28594727 30.3596582 1.28594727 30.3596582 -0.19946289 30.30639648 C-2.69555664 29.59936523 -2.69555664 29.59936523 -4.51196289 27.64233398 C-6.15946742 23.40667052 -6.13264428 19.60416875 -6.07055664 15.09936523 C-6.08795898 13.83672852 -6.08795898 13.83672852 -6.10571289 12.54858398 C-6.1018457 11.7300293 -6.09797852 10.91147461 -6.09399414 10.06811523 C-6.09061035 9.33012695 -6.08722656 8.59213867 -6.08374023 7.83178711 C-5.36447433 3.69532961 -4.27871331 0.95138495 0 0 Z " fill="#0DAAA6" transform="translate(5.695556640625,-0.599365234375)"/>
<path d="M0 0 C3.5 0.25 3.5 0.25 5.5 2.25 C5.5 3.24 5.5 4.23 5.5 5.25 C2.53 4.755 2.53 4.755 -0.5 4.25 C1.81856917 5.79571278 4.00638429 7.04618552 6.5 8.25 C7.16 6.93 7.82 5.61 8.5 4.25 C11.875 4.125 11.875 4.125 15.5 4.25 C16.16 4.91 16.82 5.57 17.5 6.25 C18.16 5.59 18.82 4.93 19.5 4.25 C21.8828125 4.0546875 21.8828125 4.0546875 24.625 4.125 C25.53507812 4.14304687 26.44515625 4.16109375 27.3828125 4.1796875 C28.08148438 4.20289063 28.78015625 4.22609375 29.5 4.25 C29.995 5.24 29.995 5.24 30.5 6.25 C31.16 5.59 31.82 4.93 32.5 4.25 C35.4375 3.875 35.4375 3.875 38.5 4.25 C40.4375 5.8125 40.4375 5.8125 41.5 8.25 C41.3125 11.9375 41.3125 11.9375 40.5 15.25 C37.73749964 16.63125018 35.55268901 16.44079306 32.5 16.25 C31.84 15.59 31.18 14.93 30.5 14.25 C29.51 16.23 28.52 18.21 27.5 20.25 C24.86 20.25 22.22 20.25 19.5 20.25 C18.84 18.93 18.18 17.61 17.5 16.25 C16.81292969 16.25 16.12585938 16.25 15.41796875 16.25 C11.77864583 16.25 8.13932292 16.25 4.5 16.25 C3.84902344 16.27320312 3.19804688 16.29640625 2.52734375 16.3203125 C0.51878006 16.37287305 -1.49176042 16.31375364 -3.5 16.25 C-4.16 15.59 -4.82 14.93 -5.5 14.25 C-5.5 12.93 -5.5 11.61 -5.5 10.25 C-4.901875 10.415 -4.30375 10.58 -3.6875 10.75 C-1.38655664 11.3614124 -1.38655664 11.3614124 1.5 11.25 C0.530625 10.775625 -0.43875 10.30125 -1.4375 9.8125 C-4.5 8.25 -4.5 8.25 -5.5 7.25 C-5.6875 4.8125 -5.6875 4.8125 -5.5 2.25 C-3.5 0.25 -3.5 0.25 0 0 Z M22.5 7.25 C22.17 8.9 21.84 10.55 21.5 12.25 C22.82 12.25 24.14 12.25 25.5 12.25 C25.5 10.93 25.5 9.61 25.5 8.25 C24.51 7.92 23.52 7.59 22.5 7.25 Z M11.5 11.25 C11.17 11.91 10.84 12.57 10.5 13.25 C11.16 13.25 11.82 13.25 12.5 13.25 C12.17 12.59 11.84 11.93 11.5 11.25 Z M17.5 13.25 C17.5 14.24 17.5 15.23 17.5 16.25 C18.49 15.92 19.48 15.59 20.5 15.25 C19.84 15.25 19.18 15.25 18.5 15.25 C18.17 14.59 17.84 13.93 17.5 13.25 Z " fill="#02A29F" transform="translate(70.5,3.75)"/>
<path d="M0 0 C1.32 0.66 2.64 1.32 4 2 C4.11591764 6.10393012 4.18715601 10.20744106 4.25 14.3125 C4.28351562 15.47974609 4.31703125 16.64699219 4.3515625 17.84960938 C4.36445313 18.96787109 4.37734375 20.08613281 4.390625 21.23828125 C4.41157227 22.26993408 4.43251953 23.30158691 4.45410156 24.36450195 C4 27 4 27 2.13769531 28.83959961 C-2.1805341 31.18365447 -7.22642848 30.21928067 -12 30 C-13.10472656 29.98066406 -14.20945312 29.96132813 -15.34765625 29.94140625 C-16.40855469 29.89886719 -17.46945313 29.85632813 -18.5625 29.8125 C-20.01849609 29.76029297 -20.01849609 29.76029297 -21.50390625 29.70703125 C-24 29 -24 29 -25.828125 26.8125 C-27.13023831 23.68742806 -27.30920081 21.55455574 -27.1875 18.1875 C-27.16042969 17.21167969 -27.13335938 16.23585938 -27.10546875 15.23046875 C-27.07066406 14.49441406 -27.03585938 13.75835937 -27 13 C-26.67 13 -26.34 13 -26 13 C-25.67 14.98 -25.34 16.96 -25 19 C-24.34 18.67 -23.68 18.34 -23 18 C-23 20.31 -23 22.62 -23 25 C-20.36 25 -17.72 25 -15 25 C-15.0721875 24.24074219 -15.144375 23.48148438 -15.21875 22.69921875 C-15.3115625 21.70535156 -15.404375 20.71148438 -15.5 19.6875 C-15.5928125 18.70136719 -15.685625 17.71523438 -15.78125 16.69921875 C-16 14 -16 14 -16 11 C-15.34 10.67 -14.68 10.34 -14 10 C-14 11.98 -14 13.96 -14 16 C-13.34 16 -12.68 16 -12 16 C-12.66 18.97 -13.32 21.94 -14 25 C-13.01 25 -12.02 25 -11 25 C-11.144375 23.948125 -11.28875 22.89625 -11.4375 21.8125 C-11 18 -11 18 -9.546875 16.73828125 C-8.93328125 16.37089844 -8.3196875 16.00351562 -7.6875 15.625 C-3.52421637 13.1219732 -2.65489865 10.36199325 -1.41015625 5.79296875 C-1.27480469 5.20128906 -1.13945312 4.60960937 -1 4 C-1.66 3.67 -2.32 3.34 -3 3 C-2.01 2.01 -1.02 1.02 0 0 Z " fill="#14649F" transform="translate(27,0)"/>
<path d="M0 0 C-0.25269065 4.29574113 -0.5568206 6.47518229 -3.375 9.8125 C-6 12 -6 12 -9 14 C-9.73606499 17.56769552 -9.73606499 17.56769552 -10 21 C-10.99 21 -11.98 21 -13 21 C-12.54177532 17.53058454 -12.10868317 14.32604951 -11 11 C-11.33 11 -11.66 11 -12 11 C-12.49046322 5.60490463 -12.49046322 5.60490463 -10.125 2.6875 C-6.60154076 -0.11054116 -4.45089835 -0.09675866 0 0 Z " fill="#EFF3F6" transform="translate(26,4)"/>
<path d="M0 0 C3.3 0 6.6 0 10 0 C10 1.32 10 2.64 10 4 C8.02 4 6.04 4 4 4 C4 4.66 4 5.32 4 6 C5.65 6 7.3 6 9 6 C9 7.32 9 8.64 9 10 C7.35 10 5.7 10 4 10 C4 11.98 4 13.96 4 16 C2.68 16 1.36 16 0 16 C0 10.72 0 5.44 0 0 Z " fill="#E0E1E2" transform="translate(37,4)"/>
<path d="M0 0 C6.8359375 -0.1953125 6.8359375 -0.1953125 9 0 C11 2 11 2 11.1953125 4.3828125 C11.17210938 5.28773437 11.14890625 6.19265625 11.125 7.125 C11.10695313 8.03507812 11.08890625 8.94515625 11.0703125 9.8828125 C11.04710938 10.58148438 11.02390625 11.28015625 11 12 C9.68 12 8.36 12 7 12 C6.67 9.36 6.34 6.72 6 4 C5.67 4 5.34 4 5 4 C4.67 6.64 4.34 9.28 4 12 C2.68 12 1.36 12 0 12 C0 8.04 0 4.08 0 0 Z " fill="#EAEAEB" transform="translate(53,8)"/>
<path d="M0 0 C0.33 0 0.66 0 1 0 C1 1.98 1 3.96 1 6 C1.66 6 2.32 6 3 6 C2.34 8.97 1.68 11.94 1 15 C1.99 15.33 2.98 15.66 4 16 C3.39671875 16.04898437 2.7934375 16.09796875 2.171875 16.1484375 C1.37265625 16.22320313 0.5734375 16.29796875 -0.25 16.375 C-1.03890625 16.44460937 -1.8278125 16.51421875 -2.640625 16.5859375 C-5.085877 17.01507113 -6.84836903 17.78600638 -9 19 C-13.01676824 14.14640505 -12.28136159 8.95027665 -12 3 C-11.67 3 -11.34 3 -11 3 C-10.67 4.98 -10.34 6.96 -10 9 C-9.34 8.67 -8.68 8.34 -8 8 C-8 10.31 -8 12.62 -8 15 C-5.36 15 -2.72 15 0 15 C-0.0721875 14.24074219 -0.144375 13.48148438 -0.21875 12.69921875 C-0.3115625 11.70535156 -0.404375 10.71148437 -0.5 9.6875 C-0.5928125 8.70136719 -0.685625 7.71523438 -0.78125 6.69921875 C-1 4 -1 4 -1 1 C-0.67 0.67 -0.34 0.34 0 0 Z " fill="#0A93A0" transform="translate(12,10)"/>
<path d="M0 0 C1.32 0 2.64 0 4 0 C4 3.63 4 7.26 4 11 C1.36 11 -1.28 11 -4 11 C-4 8.36 -4 5.72 -4 3 C-2.68 3 -1.36 3 0 3 C0 2.01 0 1.02 0 0 Z " fill="#B5CDD6" transform="translate(8,14)"/>
<path d="M0 0 C0.99 0.33 1.98 0.66 3 1 C3 6.28 3 11.56 3 17 C1.68 17 0.36 17 -1 17 C-1.02684679 14.35409986 -1.04676357 11.70846904 -1.0625 9.0625 C-1.07087891 8.30775391 -1.07925781 7.55300781 -1.08789062 6.77539062 C-1.09652441 4.85005687 -1.05224333 2.92464419 -1 1 C-0.67 0.67 -0.34 0.34 0 0 Z " fill="#E7E7E8" transform="translate(49,3)"/>
<path d="M0 0 C0.99 0 1.98 0 3 0 C4.26237731 2.52475462 4.09856404 4.31200466 4.0625 7.125 C4.05347656 8.03507812 4.04445313 8.94515625 4.03515625 9.8828125 C4.02355469 10.58148438 4.01195312 11.28015625 4 12 C2.68 12 1.36 12 0 12 C0 8.04 0 4.08 0 0 Z " fill="#D8D8D9" transform="translate(53,8)"/>
<path d="M0 0 C-0.99 0.33 -1.98 0.66 -3 1 C-3 1.99 -3 2.98 -3 4 C-5.375 6.0625 -5.375 6.0625 -8 8 C-8.66 8.66 -9.32 9.32 -10 10 C-10.49046322 4.60490463 -10.49046322 4.60490463 -8.125 1.6875 C-4.92657993 -0.85242182 -3.85385408 -1.15615622 0 0 Z " fill="#DCE8EC" transform="translate(24,5)"/>
<path d="M0 0 C0.33 0 0.66 0 1 0 C1 1.98 1 3.96 1 6 C1.66 6 2.32 6 3 6 C2.34 8.97 1.68 11.94 1 15 C1.99 15.33 2.98 15.66 4 16 C0.37 16 -3.26 16 -7 16 C-7 15.67 -7 15.34 -7 15 C-4.69 15 -2.38 15 0 15 C-0.0721875 14.24074219 -0.144375 13.48148438 -0.21875 12.69921875 C-0.3115625 11.70535156 -0.404375 10.71148437 -0.5 9.6875 C-0.5928125 8.70136719 -0.685625 7.71523438 -0.78125 6.69921875 C-1 4 -1 4 -1 1 C-0.67 0.67 -0.34 0.34 0 0 Z " fill="#2F8BAA" transform="translate(12,10)"/>
<path d="M0 0 C1.32 0.66 2.64 1.32 4 2 C3.65120368 5.25543229 2.97866739 6.01873107 0.4375 8.25 C-0.366875 8.8275 -1.17125 9.405 -2 10 C-1.67 8.02 -1.34 6.04 -1 4 C-1.66 3.67 -2.32 3.34 -3 3 C-2.01 2.01 -1.02 1.02 0 0 Z " fill="#127DA2" transform="translate(27,0)"/>
<path d="M0 0 C0.99 0 1.98 0 3 0 C3 3.63 3 7.26 3 11 C2.01 11 1.02 11 0 11 C0 7.37 0 3.74 0 0 Z " fill="#E8EDF0" transform="translate(9,14)"/>
<path d="M0 0 C0.66 0.66 1.32 1.32 2 2 C1.625 5.625 1.625 5.625 1 9 C0.01 9 -0.98 9 -2 9 C-1.125 2.25 -1.125 2.25 0 0 Z " fill="#DCE3E9" transform="translate(15,16)"/>
<path d="M0 0 C1.32 1.32 2.64 2.64 4 4 C2.02 4.99 2.02 4.99 0 6 C-0.66 4.68 -1.32 3.36 -2 2 C-1.34 1.34 -0.68 0.68 0 0 Z " fill="#1582A7" transform="translate(3,23)"/>
</svg>
