<?xml version="1.0" encoding="UTF-8"?>
<svg version="1.1" xmlns="http://www.w3.org/2000/svg" width="280" height="396">
<path d="M0 0 C1.21584495 0.00092179 2.43168989 0.00184359 3.68437862 0.00279331 C4.35901919 0.00193889 5.03365975 0.00108446 5.72874397 0.00020415 C8.00588764 -0.00145256 10.28295882 0.00407379 12.56009579 0.00952244 C14.18583836 0.00980429 15.81158107 0.00964661 17.43732357 0.00907993 C21.86482015 0.0087919 26.29228989 0.01468956 30.71978021 0.02165389 C35.34159444 0.02788646 39.96340922 0.02849115 44.58522701 0.0296793 C53.34356839 0.0327929 62.10189735 0.04100667 70.86023325 0.05102879 C80.82862615 0.06218903 90.79701963 0.06770015 100.76541722 0.07272422 C121.27698043 0.08318927 141.78853244 0.10078926 162.30008602 0.12304783 C162.30008602 0.78304783 162.30008602 1.44304783 162.30008602 2.12304783 C164.94008602 2.12304783 167.58008602 2.12304783 170.30008602 2.12304783 C170.30008602 2.78304783 170.30008602 3.44304783 170.30008602 4.12304783 C171.06321102 4.26742283 171.82633602 4.41179783 172.61258602 4.56054783 C175.30008602 5.12304783 175.30008602 5.12304783 178.30008602 6.12304783 C178.30008602 6.78304783 178.30008602 7.44304783 178.30008602 8.12304783 C179.62008602 8.12304783 180.94008602 8.12304783 182.30008602 8.12304783 C182.30008602 8.78304783 182.30008602 9.44304783 182.30008602 10.12304783 C182.96008602 10.12304783 183.62008602 10.12304783 184.30008602 10.12304783 C184.30008602 10.78304783 184.30008602 11.44304783 184.30008602 12.12304783 C184.96008602 12.12304783 185.62008602 12.12304783 186.30008602 12.12304783 C186.30008602 12.78304783 186.30008602 13.44304783 186.30008602 14.12304783 C186.96008602 14.12304783 187.62008602 14.12304783 188.30008602 14.12304783 C188.30008602 14.78304783 188.30008602 15.44304783 188.30008602 16.12304783 C188.96008602 16.12304783 189.62008602 16.12304783 190.30008602 16.12304783 C192.30008602 19.12304783 192.30008602 19.12304783 192.30008602 22.12304783 C192.96008602 22.12304783 193.62008602 22.12304783 194.30008602 22.12304783 C194.30008602 23.44304783 194.30008602 24.76304783 194.30008602 26.12304783 C194.96008602 26.12304783 195.62008602 26.12304783 196.30008602 26.12304783 C196.51664852 27.82461033 196.51664852 27.82461033 196.73758602 29.56054783 C196.9118008 32.93081984 196.9118008 32.93081984 198.30008602 34.12304783 C198.39909699 36.18368618 198.4264092 38.24777642 198.42706966 40.31079197 C198.42862965 40.96430921 198.43018965 41.61782644 198.43179691 42.29114723 C198.43580863 44.4968553 198.43261662 46.70249541 198.42948055 48.90820408 C198.43083452 50.48306411 198.43261442 52.05792383 198.43479061 53.63278294 C198.43936551 57.92191812 198.43757515 62.21102936 198.43441153 66.50016499 C198.43188822 70.97870799 198.43422538 75.45724889 198.43579769 79.93579197 C198.43761947 87.45817529 198.43521286 94.98054881 198.43045712 102.50293064 C198.42501448 111.21265448 198.42677713 119.9223549 198.43228352 128.63207817 C198.43681441 136.09617311 198.43746532 143.56026098 198.43484485 151.02435684 C198.43328194 155.48842026 198.43308869 159.95247266 198.43638134 164.41653538 C198.4392597 168.61236898 198.43728501 172.80817226 198.43148708 177.00400257 C198.4301593 178.54841276 198.43055391 180.09282549 198.43274975 181.63723469 C198.43546054 183.73662604 198.43208104 185.83591871 198.42706966 187.93530369 C198.42650413 189.7018153 198.42650413 189.7018153 198.42592716 191.50401402 C198.30008602 194.12304783 198.30008602 194.12304783 197.30008602 195.12304783 C197.06644721 196.97196729 196.88704967 198.82792814 196.73758602 200.68554783 C196.65379696 201.69746189 196.5700079 202.70937595 196.48367977 203.75195408 C196.42309383 204.53441502 196.3625079 205.31687595 196.30008602 206.12304783 C195.64008602 206.12304783 194.98008602 206.12304783 194.30008602 206.12304783 C194.30008602 207.44304783 194.30008602 208.76304783 194.30008602 210.12304783 C193.64008602 210.12304783 192.98008602 210.12304783 192.30008602 210.12304783 C192.15571102 210.74179783 192.01133602 211.36054783 191.86258602 211.99804783 C191.30008602 214.12304783 191.30008602 214.12304783 190.30008602 216.12304783 C189.64008602 216.12304783 188.98008602 216.12304783 188.30008602 216.12304783 C188.30008602 216.78304783 188.30008602 217.44304783 188.30008602 218.12304783 C187.64008602 218.12304783 186.98008602 218.12304783 186.30008602 218.12304783 C186.30008602 218.78304783 186.30008602 219.44304783 186.30008602 220.12304783 C185.64008602 220.12304783 184.98008602 220.12304783 184.30008602 220.12304783 C184.13508602 220.84492283 183.97008602 221.56679783 183.80008602 222.31054783 C181.61864932 226.40074165 178.29999211 227.97215493 174.30008602 230.12304783 C173.76036663 230.47099903 173.22064724 230.81895023 172.66457272 231.17744541 C169.27823801 232.53170395 165.98885072 232.39307081 162.39798641 232.36596775 C161.60564098 232.3678661 160.81329556 232.36976444 159.99693966 232.37172031 C157.38043953 232.37542174 154.7642177 232.36473155 152.14774227 232.35351658 C150.32697743 232.35232413 148.50621196 232.35187175 146.68544674 232.35212803 C142.86986087 232.35056417 139.05436896 232.34228282 135.23880672 232.32885838 C130.35181584 232.31188083 125.4649283 232.3080438 120.57791138 232.30880356 C116.81781182 232.30853138 113.05773477 232.3030422 109.29764271 232.29580212 C107.49594385 232.29262335 105.69424244 232.29064989 103.89254093 232.28990841 C101.37217667 232.28773577 98.85192101 232.2789712 96.33158016 232.2683115 C95.58908016 232.26876469 94.84658016 232.26921787 94.08158016 232.26968479 C91.27509691 232.25236398 88.61152416 232.18627407 85.85568905 231.62680149 C82.04064806 230.87479077 78.25875467 230.94453432 74.37894344 230.91772556 C73.49063839 230.90782597 72.60233334 230.89792637 71.68710995 230.88772678 C68.75995172 230.85621698 65.83277727 230.83139602 62.90555477 230.80664158 C60.87245424 230.78606297 58.8393579 230.76506626 56.80626583 230.74366856 C51.46175187 230.68854161 46.1171999 230.63909103 40.7726202 230.59082127 C35.31624637 230.54053771 29.85992757 230.48488745 24.40360165 230.42968845 C13.70247681 230.32222159 3.00130414 230.22075122 -7.69991398 230.12304783 C-7.69991398 229.46304783 -7.69991398 228.80304783 -7.69991398 228.12304783 C-8.84460148 227.90648533 -8.84460148 227.90648533 -10.01241398 227.68554783 C-12.69991398 227.12304783 -12.69991398 227.12304783 -15.69991398 226.12304783 C-15.69991398 225.46304783 -15.69991398 224.80304783 -15.69991398 224.12304783 C-17.01991398 224.12304783 -18.33991398 224.12304783 -19.69991398 224.12304783 C-19.69991398 223.46304783 -19.69991398 222.80304783 -19.69991398 222.12304783 C-20.35991398 222.12304783 -21.01991398 222.12304783 -21.69991398 222.12304783 C-21.69991398 221.46304783 -21.69991398 220.80304783 -21.69991398 220.12304783 C-22.35991398 220.12304783 -23.01991398 220.12304783 -23.69991398 220.12304783 C-23.69991398 219.46304783 -23.69991398 218.80304783 -23.69991398 218.12304783 C-24.35991398 218.12304783 -25.01991398 218.12304783 -25.69991398 218.12304783 C-25.69991398 217.46304783 -25.69991398 216.80304783 -25.69991398 216.12304783 C-26.35991398 216.12304783 -27.01991398 216.12304783 -27.69991398 216.12304783 C-27.69991398 215.46304783 -27.69991398 214.80304783 -27.69991398 214.12304783 C-28.35991398 214.12304783 -29.01991398 214.12304783 -29.69991398 214.12304783 C-29.69991398 213.46304783 -29.69991398 212.80304783 -29.69991398 212.12304783 C-30.35991398 212.12304783 -31.01991398 212.12304783 -31.69991398 212.12304783 C-31.69991398 210.80304783 -31.69991398 209.48304783 -31.69991398 208.12304783 C-32.35991398 208.12304783 -33.01991398 208.12304783 -33.69991398 208.12304783 C-36.89975799 202.40904067 -37.95055849 196.66085596 -37.94042301 190.1690836 C-37.94213186 189.50565069 -37.94384071 188.84221779 -37.94560134 188.15868086 C-37.94887229 185.95536528 -37.93793263 183.75236032 -37.92696476 181.54907322 C-37.92640013 179.96185405 -37.92671822 178.37463437 -37.92784977 176.7874155 C-37.92842225 172.49246635 -37.91668495 168.1976295 -37.90270185 163.90270638 C-37.89017699 159.4090563 -37.88902261 154.91540347 -37.88665104 150.42173862 C-37.88044143 141.91857324 -37.86403764 133.41545944 -37.84395206 124.91231674 C-37.8215769 115.22915363 -37.81059556 105.54598802 -37.80056119 95.86280549 C-37.77967096 75.94952417 -37.74450507 56.03628925 -37.69991398 36.12304783 C-37.03991398 36.12304783 -36.37991398 36.12304783 -35.69991398 36.12304783 C-35.69991398 33.48304783 -35.69991398 30.84304783 -35.69991398 28.12304783 C-35.03991398 28.12304783 -34.37991398 28.12304783 -33.69991398 28.12304783 C-33.69991398 26.14304783 -33.69991398 24.16304783 -33.69991398 22.12304783 C-33.03991398 22.12304783 -32.37991398 22.12304783 -31.69991398 22.12304783 C-31.69991398 21.46304783 -31.69991398 20.80304783 -31.69991398 20.12304783 C-31.03991398 20.12304783 -30.37991398 20.12304783 -29.69991398 20.12304783 C-29.69991398 18.80304783 -29.69991398 17.48304783 -29.69991398 16.12304783 C-29.03991398 16.12304783 -28.37991398 16.12304783 -27.69991398 16.12304783 C-27.69991398 15.46304783 -27.69991398 14.80304783 -27.69991398 14.12304783 C-27.03991398 14.12304783 -26.37991398 14.12304783 -25.69991398 14.12304783 C-25.69991398 13.46304783 -25.69991398 12.80304783 -25.69991398 12.12304783 C-25.03991398 12.12304783 -24.37991398 12.12304783 -23.69991398 12.12304783 C-23.69991398 11.46304783 -23.69991398 10.80304783 -23.69991398 10.12304783 C-23.03991398 10.12304783 -22.37991398 10.12304783 -21.69991398 10.12304783 C-21.69991398 9.46304783 -21.69991398 8.80304783 -21.69991398 8.12304783 C-19.71991398 7.46304783 -17.73991398 6.80304783 -15.69991398 6.12304783 C-15.69991398 5.46304783 -15.69991398 4.80304783 -15.69991398 4.12304783 C-14.84526554 3.91808689 -13.9906171 3.71312595 -13.11007023 3.50195408 C-12.00534367 3.23254002 -10.9006171 2.96312595 -9.76241398 2.68554783 C-8.66026554 2.41871189 -7.5581171 2.15187595 -6.42257023 1.87695408 C-3.41571387 1.04435253 -3.1012495 0.14133858 0 0 Z " fill="#0D88A5" transform="translate(59.69991397857666,63.876952171325684)"/>
<path d="M0 0 C0.92624359 26.64019061 -3.29492941 53.60452897 -21.5 74.375 C-22.98201155 75.93396692 -24.48039361 77.47765558 -26 79 C-26.54011719 79.55171875 -27.08023438 80.1034375 -27.63671875 80.671875 C-34.38172487 86.99213263 -43.21022006 91.0565784 -51.37109375 95.265625 C-65.3469951 102.05947539 -65.3469951 102.05947539 -76 113 C-76.4607546 115.4420203 -76.4607546 115.4420203 -76.41650391 118.10400391 C-76.43307037 119.11830475 -76.44963684 120.13260559 -76.46670532 121.17764282 C-76.46995819 122.26628632 -76.47321106 123.35492981 -76.4765625 124.4765625 C-76.49214203 125.59815765 -76.50772156 126.71975281 -76.52377319 127.87533569 C-76.57131743 131.45855012 -76.59906791 135.04156944 -76.625 138.625 C-76.66146085 142.2154345 -76.70204705 145.8057577 -76.74765015 149.39608765 C-76.77492483 151.63074243 -76.79625508 153.86547891 -76.81118774 156.10025024 C-76.82658096 157.61224503 -76.82658096 157.61224503 -76.84228516 159.15478516 C-76.84878082 160.04428864 -76.85527649 160.93379211 -76.86196899 161.85025024 C-77 164 -77 164 -78 166 C-84.6 166 -91.2 166 -98 166 C-100.46126199 122.9279151 -71.00547225 71.27052806 -43.2421875 39.83984375 C-37.70508464 33.68911276 -31.91687737 27.78539121 -26 22 C-56.91646946 34.89373496 -74.37759861 65.75767864 -89 94 C-95.54428091 81.87383243 -94.80423537 63.2697906 -91.3125 50.25 C-87.81203833 39.94308508 -82.6076121 32.74570407 -75 25 C-74.32195312 24.29746094 -73.64390625 23.59492187 -72.9453125 22.87109375 C-54.47779436 5.06561872 -24.8819422 -1.22593511 0 0 Z " fill="#FCFDFE" transform="translate(215,97)"/>
<path d="M0 0 C1.19496094 -0.00386719 1.19496094 -0.00386719 2.4140625 -0.0078125 C3.24679688 -0.00007812 4.07953125 0.00765625 4.9375 0.015625 C5.77023438 0.00789062 6.60296875 0.00015625 7.4609375 -0.0078125 C8.25757812 -0.00523437 9.05421875 -0.00265625 9.875 0 C10.60589844 0.00225586 11.33679688 0.00451172 12.08984375 0.00683594 C13.9375 0.265625 13.9375 0.265625 15.9375 2.265625 C16.13081375 4.99595062 16.19975283 7.62443505 16.18041992 10.35546875 C16.18231827 11.19135529 16.18421661 12.02724182 16.18617249 12.88845825 C16.1898866 15.6601083 16.17916702 18.43149811 16.16796875 21.203125 C16.16677718 23.12361622 16.16632374 25.04410803 16.1665802 26.96459961 C16.16501423 30.99303832 16.15671597 35.0213883 16.14331055 39.04980469 C16.12632056 44.22188203 16.12249615 49.39386177 16.12325573 54.56596375 C16.12298421 58.53268369 16.1175059 62.49938216 16.11025429 66.46609497 C16.10706488 68.37354367 16.10509958 70.28099482 16.10436058 72.18844604 C16.1021999 74.85093355 16.09346152 77.51331616 16.08276367 80.17578125 C16.08344345 81.36652756 16.08344345 81.36652756 16.08413696 82.58132935 C16.05197703 88.03667093 16.05197703 88.03667093 14.9375 90.265625 C11.62501813 90.29450646 8.31256833 90.31238299 5 90.328125 C4.05447266 90.33650391 3.10894531 90.34488281 2.13476562 90.35351562 C0.78608398 90.35834961 0.78608398 90.35834961 -0.58984375 90.36328125 C-1.42249756 90.36851807 -2.25515137 90.37375488 -3.11303711 90.37915039 C-5.0625 90.265625 -5.0625 90.265625 -6.0625 89.265625 C-6.16828991 86.56800038 -6.20927939 83.89584379 -6.20776367 81.19750977 C-6.21112228 80.35201569 -6.2144809 79.50652161 -6.21794128 78.63540649 C-6.22748082 75.82593335 -6.22939589 73.01651961 -6.23046875 70.20703125 C-6.23367922 68.26268997 -6.23704313 66.31834894 -6.24055481 64.37400818 C-6.24655359 60.29254598 -6.24839394 56.21110497 -6.24780273 52.12963867 C-6.24770106 46.88911992 -6.26135502 41.64873651 -6.27857494 36.40824986 C-6.28967101 32.39091869 -6.29172268 28.37362049 -6.29119301 24.35627556 C-6.29237668 22.42370067 -6.29681997 20.49112503 -6.30452538 18.55856514 C-6.31427725 15.85999079 -6.31146638 13.16171347 -6.30541992 10.46313477 C-6.31103943 9.65838211 -6.31665894 8.85362946 -6.32244873 8.02449036 C-6.29074804 2.48215875 -5.86718078 0.01810858 0 0 Z " fill="#FCFDFD" transform="translate(90.0625,172.734375)"/>
<path d="M0 0 C0.99 0 1.98 0 3 0 C3 0.66 3 1.32 3 2 C3.66 2 4.32 2 5 2 C5 2.66 5 3.32 5 4 C5.66 4 6.32 4 7 4 C7 4.66 7 5.32 7 6 C7.66 6 8.32 6 9 6 C9 6.66 9 7.32 9 8 C9.66 8 10.32 8 11 8 C13 11 13 11 13 14 C13.66 14 14.32 14 15 14 C15 15.32 15 16.64 15 18 C15.66 18 16.32 18 17 18 C17.2165625 19.7015625 17.2165625 19.7015625 17.4375 21.4375 C17.61171478 24.80777201 17.61171478 24.80777201 19 26 C19.09901097 28.06063835 19.12632318 30.12472859 19.12698364 32.18774414 C19.12854363 32.84126138 19.13010362 33.49477861 19.13171089 34.1680994 C19.13572261 36.37380747 19.1325306 38.57944758 19.12939453 40.78515625 C19.1307485 42.36001628 19.1325284 43.934876 19.13470459 45.50973511 C19.13927949 49.79887029 19.13748913 54.08798153 19.1343255 58.37711716 C19.13180219 62.85566016 19.13413936 67.33420106 19.13571167 71.81274414 C19.13753345 79.33512746 19.13512683 86.85750098 19.13037109 94.37988281 C19.12492846 103.08960665 19.12669111 111.79930708 19.1321975 120.50903034 C19.13672839 127.97312528 19.1373793 135.43721315 19.13475883 142.90130901 C19.13319592 147.36537243 19.13300267 151.82942483 19.13629532 156.29348755 C19.13917368 160.48932115 19.13719899 164.68512443 19.13140106 168.88095474 C19.13007328 170.42536493 19.13046789 171.96977766 19.13266373 173.51418686 C19.13537452 175.61357822 19.13199502 177.71287088 19.12698364 179.81225586 C19.1264181 181.57876747 19.1264181 181.57876747 19.12584114 183.38096619 C19 186 19 186 18 187 C17.76636119 188.84891946 17.58696365 190.70488031 17.4375 192.5625 C17.35371094 193.57441406 17.26992188 194.58632813 17.18359375 195.62890625 C17.12300781 196.41136719 17.06242188 197.19382812 17 198 C16.34 198 15.68 198 15 198 C15 199.32 15 200.64 15 202 C14.34 202 13.68 202 13 202 C12.855625 202.61875 12.71125 203.2375 12.5625 203.875 C12 206 12 206 11 208 C10.34 208 9.68 208 9 208 C9 208.66 9 209.32 9 210 C8.34 210 7.68 210 7 210 C7 210.66 7 211.32 7 212 C6.34 212 5.68 212 5 212 C4.835 212.721875 4.67 213.44375 4.5 214.1875 C2.3185633 218.27769382 -1.00009391 219.8491071 -5 222 C-5.53971939 222.3479512 -6.07943878 222.6959024 -6.63551331 223.05439758 C-10.02184801 224.40865612 -13.3112353 224.27002298 -16.90209961 224.24291992 C-17.69444504 224.24481827 -18.48679047 224.24671661 -19.30314636 224.24867249 C-21.91964649 224.25237392 -24.53586832 224.24168372 -27.15234375 224.23046875 C-28.9731086 224.2292763 -30.79387406 224.22882393 -32.61463928 224.2290802 C-36.43022515 224.22751634 -40.24571706 224.21923499 -44.0612793 224.20581055 C-48.94827018 224.188833 -53.83515772 224.18499597 -58.72217464 224.18575573 C-62.48227421 224.18548355 -66.24235125 224.17999437 -70.00244331 224.17275429 C-71.80414217 224.16957552 -73.60584358 224.16760206 -75.40754509 224.16686058 C-77.92790935 224.16468794 -80.44816501 224.15592338 -82.96850586 224.14526367 C-83.71100586 224.14571686 -84.45350586 224.14617004 -85.21850586 224.14663696 C-88.02498912 224.12931615 -90.68856186 224.06322624 -93.44439697 223.50375366 C-97.25943796 222.75174294 -101.04133135 222.82148649 -104.92114258 222.79467773 C-105.80944763 222.78477814 -106.69775269 222.77487854 -107.61297607 222.76467896 C-110.54013431 222.73316915 -113.46730875 222.70834819 -116.39453125 222.68359375 C-118.42763178 222.66301514 -120.46072812 222.64201843 -122.49382019 222.62062073 C-127.83833415 222.56549378 -133.18288612 222.5160432 -138.52746582 222.46777344 C-143.98383965 222.41748988 -149.44015845 222.36183962 -154.89648438 222.30664062 C-165.59760921 222.19917376 -176.29878188 222.09770339 -187 222 C-187 221.34 -187 220.68 -187 220 C-187.763125 219.855625 -188.52625 219.71125 -189.3125 219.5625 C-192 219 -192 219 -195 218 C-195 217.34 -195 216.68 -195 216 C-196.32 216 -197.64 216 -199 216 C-199 215.34 -199 214.68 -199 214 C-199.66 214 -200.32 214 -201 214 C-201 213.34 -201 212.68 -201 212 C-201.66 212 -202.32 212 -203 212 C-203 211.34 -203 210.68 -203 210 C-198.63466152 211.67897634 -194.54889661 213.72576555 -190.40234375 215.87890625 C-185.97588811 217.94458555 -182.17691306 218.12986531 -177.29772949 218.14717102 C-176.62490889 218.15084771 -175.95208829 218.1545244 -175.25887918 218.1583125 C-173.00526064 218.16932167 -170.75168825 218.17318852 -168.49804688 218.17700195 C-166.88147842 218.1832689 -165.2649114 218.18991591 -163.64834595 218.19691467 C-158.3384908 218.21793723 -153.02863543 218.22831821 -147.71875 218.23828125 C-145.8876799 218.24233006 -144.05660995 218.24644702 -142.22554016 218.25063133 C-133.61848398 218.2696823 -125.01143636 218.2839112 -116.40436316 218.2922433 C-106.48721345 218.30200324 -96.57028769 218.3282906 -86.65321684 218.36874419 C-78.97742642 218.39897413 -71.30169992 218.41371885 -63.62585115 218.41702431 C-59.04680724 218.41936776 -54.46800258 218.42823531 -49.88902283 218.45348549 C-45.57481883 218.47689065 -41.26100948 218.48094987 -36.94675827 218.47072411 C-35.3714758 218.47023158 -33.79617307 218.47646767 -32.22095108 218.49028015 C-18.30953783 218.6053436 -6.74246343 216.35881876 4 207 C13.92421949 196.90128874 15.74525166 184.41488173 15.64697266 170.86523438 C15.65376331 169.27703352 15.66267451 167.68884055 15.67352295 166.10066223 C15.69615124 161.8215783 15.68754889 157.54310288 15.67162752 153.26400948 C15.6588824 148.76530561 15.67073237 144.26665047 15.67855835 139.76794434 C15.68763001 132.21613302 15.67573251 124.66456697 15.65185547 117.11279297 C15.62464892 108.40797883 15.63346485 99.70375044 15.6609875 90.99895048 C15.68374866 83.49704622 15.68684455 75.99531728 15.67379415 68.49338961 C15.66603799 64.0251332 15.66485147 59.55715124 15.68147659 55.08891296 C15.69602471 50.88606828 15.68571333 46.68397159 15.65700531 42.48120689 C15.65044924 40.94787011 15.65219715 39.41446929 15.66331863 37.88115883 C15.73337563 27.23274738 14.54347416 17.26660449 7.578125 8.7109375 C6.80984375 7.94007812 6.0415625 7.16921875 5.25 6.375 C1.02711864 2.05423729 1.02711864 2.05423729 0 0 Z " fill="#0D111A" transform="translate(239,72)"/>
<path d="M0 0 C1.19496094 -0.00386719 1.19496094 -0.00386719 2.4140625 -0.0078125 C3.24679688 -0.00007812 4.07953125 0.00765625 4.9375 0.015625 C5.77023438 0.00789062 6.60296875 0.00015625 7.4609375 -0.0078125 C8.25757812 -0.00523437 9.05421875 -0.00265625 9.875 0 C10.60589844 0.00225586 11.33679688 0.00451172 12.08984375 0.00683594 C13.9375 0.265625 13.9375 0.265625 15.9375 2.265625 C16.18473816 4.7013092 16.18473816 4.7013092 16.18041992 7.80102539 C16.18349655 8.95885025 16.18657318 10.11667511 16.18974304 11.30958557 C16.18255753 12.56480515 16.17537201 13.82002472 16.16796875 15.11328125 C16.16728142 17.03653481 16.16728142 17.03653481 16.1665802 18.99864197 C16.16501538 21.71309824 16.15672513 24.42742261 16.14331055 27.1418457 C16.1263037 30.6280449 16.12249668 34.1140993 16.12325573 37.60033512 C16.1229191 40.91717004 16.11408537 44.23395706 16.10546875 47.55078125 C16.10435593 48.80802505 16.1032431 50.06526886 16.10209656 51.36061096 C16.09571671 52.51528366 16.08933685 53.66995636 16.08276367 54.85961914 C16.07704597 56.39278526 16.07704597 56.39278526 16.07121277 57.95692444 C15.9375 60.265625 15.9375 60.265625 14.9375 61.265625 C11.7992655 61.51529067 8.64700387 61.45084291 5.5 61.453125 C4.61505859 61.46537109 3.73011719 61.47761719 2.81835938 61.49023438 C1.97208984 61.49216797 1.12582031 61.49410156 0.25390625 61.49609375 C-0.52525146 61.50020264 -1.30440918 61.50431152 -2.10717773 61.50854492 C-4.0625 61.265625 -4.0625 61.265625 -6.0625 59.265625 C-6.31646729 56.87463379 -6.31646729 56.87463379 -6.32128906 53.83789062 C-6.32759338 52.70331421 -6.33389771 51.56873779 -6.34039307 50.39978027 C-6.3363446 49.16957153 -6.33229614 47.93936279 -6.328125 46.671875 C-6.33003845 45.41427368 -6.3319519 44.15667236 -6.33392334 42.86096191 C-6.33528649 40.19769625 -6.33258006 37.5347957 -6.32324219 34.87158203 C-6.31184752 31.45491106 -6.31840748 28.03855428 -6.33038712 24.62189484 C-6.33934454 21.36771021 -6.33307628 18.11356373 -6.328125 14.859375 C-6.33217346 13.62916626 -6.33622192 12.39895752 -6.34039307 11.13146973 C-6.33408875 9.99689331 -6.32778442 8.86231689 -6.32128906 7.69335938 C-6.31969788 6.69123413 -6.31810669 5.68910889 -6.31646729 4.65661621 C-5.864805 0.40441285 -3.80329749 0.01173857 0 0 Z " fill="#F9FCFC" transform="translate(57.0625,201.734375)"/>
<path d="M0 0 C0.99 0.66 1.98 1.32 3 2 C1.5513572 2.95240559 0.09032391 3.88596442 -1.375 4.8125 C-2.59316406 5.59560547 -2.59316406 5.59560547 -3.8359375 6.39453125 C-13.43191219 11.26359989 -22.82342116 11.41749707 -33.37353516 11.34057617 C-35.0104572 11.3397286 -36.64738038 11.34020758 -38.28430176 11.34190369 C-42.70102558 11.34276 -47.11750208 11.32519364 -51.53416872 11.30418181 C-56.15992236 11.28535391 -60.78568246 11.28365977 -65.41146851 11.28010559 C-74.15893373 11.27080302 -82.9062857 11.24621357 -91.65370119 11.21605712 C-101.61745182 11.18245729 -111.58120803 11.16601309 -121.54500127 11.15097082 C-142.03006392 11.11966233 -162.51502481 11.0669368 -183 11 C-183.33 10.34 -183.66 9.68 -184 9 C-156.87207585 8.2991349 -129.76618565 7.9176248 -102.62890625 8.078125 C-100.05675368 8.09109204 -97.48459993 8.10382743 -94.91244507 8.11633301 C-84.44774973 8.1694382 -73.98318668 8.22518169 -63.51879883 8.32226562 C-56.98261424 8.38276967 -50.44657688 8.41661581 -43.91013908 8.43544769 C-41.46104847 8.44708965 -39.01198151 8.4677396 -36.56305122 8.49808502 C-17.63364391 9.43069881 -17.63364391 9.43069881 -1.21168518 1.33380127 C-0.81182907 0.89364685 -0.41197296 0.45349243 0 0 Z " fill="#1364AC" transform="translate(238,280)"/>
<path d="M0 0 C0.67976711 -0.00170885 1.35953423 -0.0034177 2.05990034 -0.00517833 C4.31849119 -0.00845047 6.57677932 0.00249241 8.83534241 0.01345825 C10.46196994 0.01402286 12.08859798 0.01370484 13.71522522 0.01257324 C18.11760783 0.01200066 22.5198809 0.02373961 26.92223811 0.03772116 C31.52799721 0.05024433 36.13375897 0.05140027 40.73953247 0.05377197 C49.45519305 0.05998208 58.17080332 0.07638655 66.88644177 0.09647095 C76.81143843 0.11884456 86.73643752 0.12982706 96.66145313 0.13986182 C117.07239024 0.16075318 137.4832821 0.19592004 157.8941803 0.24050903 C157.8941803 0.90050903 157.8941803 1.56050903 157.8941803 2.24050903 C159.5441803 2.24050903 161.1941803 2.24050903 162.8941803 2.24050903 C163.2241803 2.90050903 163.5541803 3.56050903 163.8941803 4.24050903 C162.98713852 4.07785049 162.08009674 3.91519196 161.14556885 3.74760437 C155.73911886 2.98190749 150.32151131 3.10946974 144.8719635 3.12698364 C143.67767731 3.12683762 142.48339111 3.12669159 141.25291443 3.12654114 C137.99488244 3.12711639 134.73689399 3.13211577 131.47887063 3.1391151 C128.06279966 3.14539276 124.64672771 3.1459561 121.23065186 3.1471405 C114.76514483 3.15024293 108.29965481 3.15843972 101.83415526 3.16848999 C94.48665 3.17966479 87.13914394 3.18516837 79.79163229 3.19018543 C65.29033095 3.20020211 50.78904492 3.21665425 36.28775501 3.23771572 C32.8216308 3.2417607 29.35622293 3.23817191 25.89027405 3.20535278 C24.37074366 3.19609542 22.85121237 3.18698517 21.3316803 3.17800903 C20.56404358 3.16963013 19.79640686 3.16125122 19.00550842 3.15261841 C15.70627305 3.13823639 13.0467217 3.1896619 9.8941803 4.24050903 C7.55745046 3.93188434 5.2242494 3.5959433 2.8941803 3.24050903 C-0.65389849 3.01875411 -3.10887622 3.2413982 -6.5433197 4.24050903 C-10.23356451 5.27636723 -13.29434494 5.39607943 -17.1058197 5.24050903 C-13.06192993 0.00723992 -6.11167613 -0.00930948 0 0 Z " fill="#0A7676" transform="translate(64.10581970214844,63.759490966796875)"/>
<path d="M0 0 C0.66 0.33 1.32 0.66 2 1 C1.28972656 1.55429688 0.57945313 2.10859375 -0.15234375 2.6796875 C-1.07144531 3.40414062 -1.99054687 4.12859375 -2.9375 4.875 C-3.85402344 5.59429687 -4.77054688 6.31359375 -5.71484375 7.0546875 C-8.06009485 8.79420836 -8.06009485 8.79420836 -9 11 C-9.66 11 -10.32 11 -11 11 C-11.2475 11.639375 -11.495 12.27875 -11.75 12.9375 C-13.68694853 17.68302389 -15.70711641 22.41423281 -18 27 C-19.37549258 39.15699923 -19.05050041 51.6533359 -18.99609375 63.8671875 C-18.95696568 79.12211525 -19.07473057 94.3747319 -19.21875 109.62890625 C-19.2297769 110.79923716 -19.24080379 111.96956806 -19.25216484 113.17536354 C-19.32081693 120.40594903 -19.39186139 127.63650962 -19.46356201 134.86706543 C-19.52505419 141.10342298 -19.58470435 147.33979816 -19.64453125 153.57617188 C-19.76126593 165.71746536 -19.87996862 177.85873868 -20 190 C-20.33 190 -20.66 190 -21 190 C-21.02337529 169.40714289 -21.04100193 148.81428798 -21.05181217 128.22142029 C-21.05696529 118.65949052 -21.06398923 109.097569 -21.07543945 99.53564453 C-21.08541636 91.20007891 -21.09186059 82.86451926 -21.09408849 74.52894783 C-21.09539049 70.11662176 -21.098444 65.70431278 -21.10573006 61.29199219 C-21.11253771 57.1355521 -21.11460732 52.97913609 -21.11310768 48.82269096 C-21.11338188 47.30057074 -21.11535877 45.77844969 -21.11920547 44.2563343 C-21.13638151 37.10677447 -21.15055064 30.07505119 -20 23 C-19.34 23 -18.68 23 -18 23 C-18 21.02 -18 19.04 -18 17 C-17.34 17 -16.68 17 -16 17 C-16 16.34 -16 15.68 -16 15 C-15.34 15 -14.68 15 -14 15 C-14 13.68 -14 12.36 -14 11 C-13.34 11 -12.68 11 -12 11 C-12 10.34 -12 9.68 -12 9 C-11.34 9 -10.68 9 -10 9 C-10 8.34 -10 7.68 -10 7 C-9.34 7 -8.68 7 -8 7 C-8 6.34 -8 5.68 -8 5 C-7.34 5 -6.68 5 -6 5 C-6 4.34 -6 3.68 -6 3 C-4.03533587 1.93224776 -2.03144641 0.93446535 0 0 Z " fill="#03C1B2" transform="translate(44,69)"/>
<path d="M0 0 C0.33 0 0.66 0 1 0 C1.11702065 20.26294294 1.20507971 40.5258169 1.25906086 60.78902817 C1.28479619 70.19849726 1.31985696 79.60775588 1.37719727 89.01708984 C1.42717575 97.2223161 1.45932493 105.42738985 1.47044247 113.6327641 C1.4769369 117.97386137 1.49210201 122.31452252 1.52865028 126.65547943 C1.56283874 130.7497075 1.57300747 134.84332393 1.56553841 138.9376812 C1.56690284 140.43235293 1.57669877 141.92704724 1.59602737 143.42159462 C1.75194251 156.11045198 -1.03659569 165.98886315 -9 176 C-9.33 175.01 -9.66 174.02 -10 173 C-9.505 172.01 -9.505 172.01 -9 171 C-8.34 171 -7.68 171 -7 171 C-0.51446685 155.71267187 -0.73765251 140.13725677 -0.83984375 123.828125 C-0.84613741 121.54213723 -0.85136968 119.25614632 -0.85560608 116.97015381 C-0.86886838 110.94886232 -0.8932229 104.92767349 -0.92095947 98.90643311 C-0.9692357 88.23453551 -1.00251008 77.56260096 -1.02734375 66.890625 C-1.0303587 65.74259903 -1.03337364 64.59457306 -1.03647995 63.41175842 C-1.08422727 42.26144826 -0.70171538 21.13800732 0 0 Z " fill="#1171BF" transform="translate(254,102)"/>
<path d="M0 0 C3.45412296 1.33468794 6.7601692 2.8258663 10.0625 4.5 C10.89910156 4.9228125 11.73570313 5.345625 12.59765625 5.78125 C15 7 15 7 16.67425537 8.0562439 C19.95309789 9.38675439 23.12917112 9.30831803 26.61425781 9.31884766 C27.37562042 9.32889328 28.13698303 9.3389389 28.92141724 9.34928894 C31.43197898 9.38012062 33.94243408 9.3971559 36.453125 9.4140625 C38.19619667 9.43277417 39.93925929 9.45234759 41.68231201 9.4727478 C46.26565206 9.52407512 50.84902148 9.56369763 55.43249512 9.60089111 C60.11132069 9.64092699 64.79002402 9.69202124 69.46875 9.7421875 C78.64574747 9.83895388 87.82281395 9.92335642 97 10 C97 10.33 97 10.66 97 11 C92.42214827 11.89288812 88.09493567 12.12137195 83.43408203 12.11352539 C82.3354911 12.11374443 82.3354911 12.11374443 81.21470642 12.1139679 C78.81237751 12.1132755 76.41012774 12.10551482 74.0078125 12.09765625 C72.33486982 12.09578968 70.66192658 12.0943669 68.98898315 12.09336853 C64.59959385 12.08956219 60.21023797 12.07974808 55.82086182 12.06866455 C51.33630831 12.05840985 46.85174937 12.05386223 42.3671875 12.04882812 C33.57810971 12.03812403 24.78905902 12.02107035 16 12 C16 11.34 16 10.68 16 10 C15.236875 9.855625 14.47375 9.71125 13.6875 9.5625 C11 9 11 9 8 8 C8 7.34 8 6.68 8 6 C6.68 6 5.36 6 4 6 C4 5.34 4 4.68 4 4 C3.34 4 2.68 4 2 4 C2 3.34 2 2.68 2 2 C1.34 2 0.68 2 0 2 C0 1.34 0 0.68 0 0 Z " fill="#101625" transform="translate(36,282)"/>
<path d="M0 0 C0.99 0.66 1.98 1.32 3 2 C1.46306333 2.96590091 -0.07980878 3.92235999 -1.625 4.875 C-2.48351562 5.40867187 -3.34203125 5.94234375 -4.2265625 6.4921875 C-11.14439079 10.25314767 -17.25124149 10.26723851 -24.9609375 10.1953125 C-26.10664215 10.1924826 -27.2523468 10.18965271 -28.43276978 10.18673706 C-32.08028755 10.17557135 -35.72755685 10.15047299 -39.375 10.125 C-41.85286103 10.11496555 -44.33072592 10.10584051 -46.80859375 10.09765625 C-52.87248014 10.0756438 -58.93622231 10.04220194 -65 10 C-65 9.67 -65 9.34 -65 9 C-61.54213114 8.82272175 -58.08374664 8.65920706 -54.625 8.5 C-53.02156738 8.42410645 -53.02156738 8.42410645 -51.38574219 8.34667969 C-45.59242283 8.09933204 -39.83700671 7.98194765 -34.0390625 8.109375 C-32.90388184 8.13064453 -31.76870117 8.15191406 -30.59912109 8.17382812 C-28.4269528 8.22323157 -26.2551209 8.29358255 -24.08447266 8.38867188 C-15.92809511 8.55997527 -7.41396007 7.00139663 -1.16113281 1.33300781 C-0.77795898 0.89311523 -0.39478516 0.45322266 0 0 Z " fill="#1158B8" transform="translate(238,280)"/>
<path d="M0 0 C0.66 0.33 1.32 0.66 2 1 C1.28972656 1.55429688 0.57945313 2.10859375 -0.15234375 2.6796875 C-1.07144531 3.40414062 -1.99054687 4.12859375 -2.9375 4.875 C-3.85402344 5.59429687 -4.77054688 6.31359375 -5.71484375 7.0546875 C-8.06009485 8.79420836 -8.06009485 8.79420836 -9 11 C-9.66 11 -10.32 11 -11 11 C-11.2475 11.639375 -11.495 12.27875 -11.75 12.9375 C-13.68694853 17.68302389 -15.70711641 22.41423281 -18 27 C-18.23274209 29.87910588 -18.41972757 32.74146495 -18.5625 35.625 C-18.60568359 36.42679688 -18.64886719 37.22859375 -18.69335938 38.0546875 C-18.79951457 40.0362511 -18.90026855 42.01810271 -19 44 C-19.33 44 -19.66 44 -20 44 C-20 37.07 -20 30.14 -20 23 C-19.34 23 -18.68 23 -18 23 C-18 21.02 -18 19.04 -18 17 C-17.34 17 -16.68 17 -16 17 C-16 16.34 -16 15.68 -16 15 C-15.34 15 -14.68 15 -14 15 C-14 13.68 -14 12.36 -14 11 C-13.34 11 -12.68 11 -12 11 C-12 10.34 -12 9.68 -12 9 C-11.34 9 -10.68 9 -10 9 C-10 8.34 -10 7.68 -10 7 C-9.34 7 -8.68 7 -8 7 C-8 6.34 -8 5.68 -8 5 C-7.34 5 -6.68 5 -6 5 C-6 4.34 -6 3.68 -6 3 C-4.03533587 1.93224776 -2.03144641 0.93446535 0 0 Z " fill="#00C3A5" transform="translate(44,69)"/>
<path d="M0 0 C0.99 0 1.98 0 3 0 C3 0.66 3 1.32 3 2 C3.66 2 4.32 2 5 2 C5 2.66 5 3.32 5 4 C5.66 4 6.32 4 7 4 C7 4.66 7 5.32 7 6 C7.66 6 8.32 6 9 6 C9 6.66 9 7.32 9 8 C9.66 8 10.32 8 11 8 C13 11 13 11 13 14 C13.66 14 14.32 14 15 14 C15 15.32 15 16.64 15 18 C15.66 18 16.32 18 17 18 C17.9765625 24.0546875 17.9765625 24.0546875 18 26 C17.34 26.66 16.68 27.32 16 28 C15.78085938 27.23816406 15.56171875 26.47632812 15.3359375 25.69140625 C12.14941753 15.31578636 7.16856974 8.0219709 0 0 Z " fill="#0D0F17" transform="translate(239,72)"/>
<path d="M0 0 C0.33 0 0.66 0 1 0 C2.03559124 11.69067448 -1.77579426 20.91814135 -9 30 C-9.33 29.01 -9.66 28.02 -10 27 C-9.67 26.34 -9.34 25.68 -9 25 C-8.34 25 -7.68 25 -7 25 C-4.28222137 18.59380751 -2.74522592 12.04897102 -1.46484375 5.234375 C-1 3 -1 3 0 0 Z " fill="#0F55B1" transform="translate(254,248)"/>
<path d="M0 0 C3.45412296 1.33468794 6.7601692 2.8258663 10.0625 4.5 C10.89910156 4.9228125 11.73570313 5.345625 12.59765625 5.78125 C13.39042969 6.1834375 14.18320312 6.585625 15 7 C16.33288197 7.66756863 17.66605109 8.3345659 19 9 C18.67 9.99 18.34 10.98 18 12 C17.34 12 16.68 12 16 12 C16 11.34 16 10.68 16 10 C15.236875 9.855625 14.47375 9.71125 13.6875 9.5625 C11 9 11 9 8 8 C8 7.34 8 6.68 8 6 C6.68 6 5.36 6 4 6 C4 5.34 4 4.68 4 4 C3.34 4 2.68 4 2 4 C2 3.34 2 2.68 2 2 C1.34 2 0.68 2 0 2 C0 1.34 0 0.68 0 0 Z " fill="#0C151E" transform="translate(36,282)"/>
<path d="M0 0 C0.99 0.33 1.98 0.66 3 1 C4.1875 3.5625 4.1875 3.5625 5 6 C5.66 6 6.32 6 7 6 C7.33 6.66 7.66 7.32 8 8 C8.99 8.33 9.98 8.66 11 9 C11.33 9.99 11.66 10.98 12 12 C10.68 12.33 9.36 12.66 8 13 C8 12.34 8 11.68 8 11 C7.34 11 6.68 11 6 11 C6 10.34 6 9.68 6 9 C5.34 9 4.68 9 4 9 C4 8.34 4 7.68 4 7 C3.34 7 2.68 7 2 7 C2 5.68 2 4.36 2 3 C1.34 3 0.68 3 0 3 C0 2.01 0 1.02 0 0 Z " fill="#13627F" transform="translate(26,269)"/>
<path d="M0 0 C0.6875 1.625 0.6875 1.625 1 4 C0.06833174 6.03273074 -0.9349985 8.03384339 -2 10 C-2.165 10.70125 -2.33 11.4025 -2.5 12.125 C-3.14608536 14.5478201 -4.47570992 16.03112531 -6 18 C-6.33 18.99 -6.66 19.98 -7 21 C-9.0625 21.6875 -9.0625 21.6875 -11 22 C-10.45730469 20.99839844 -9.91460937 19.99679688 -9.35546875 18.96484375 C-8.6326572 17.62247944 -7.91000971 16.28002679 -7.1875 14.9375 C-6.83107422 14.28072266 -6.47464844 13.62394531 -6.10742188 12.94726562 C-3.83254487 8.71056808 -1.83286763 4.44629404 0 0 Z " fill="#0A6697" transform="translate(208,145)"/>
<path d="M0 0 C0.66 0.66 1.32 1.32 2 2 C1.319375 1.95875 0.63875 1.9175 -0.0625 1.875 C-3.11630517 1.88573141 -3.11630517 1.88573141 -6.375 3 C-10.08971963 4.02475024 -13.1680577 4.15640581 -17 4 C-15.22208888 1.72822468 -14.14569764 1.03727149 -11.3125 0.3125 C-7.46283314 -0.05067612 -3.86704717 -0.19335236 0 0 Z " fill="#00D6AF" transform="translate(64,65)"/>
<path d="M0 0 C0.66 0.33 1.32 0.66 2 1 C0.98679687 1.79664062 0.98679687 1.79664062 -0.046875 2.609375 C-1.38492188 3.66898437 -1.38492188 3.66898437 -2.75 4.75 C-3.63171875 5.44609375 -4.5134375 6.1421875 -5.421875 6.859375 C-7.75847248 8.79945897 -9.8938562 10.81512186 -12 13 C-12.33 12.34 -12.66 11.68 -13 11 C-12.67 10.34 -12.34 9.68 -12 9 C-11.34 9 -10.68 9 -10 9 C-10 8.34 -10 7.68 -10 7 C-9.34 7 -8.68 7 -8 7 C-8 6.34 -8 5.68 -8 5 C-7.34 5 -6.68 5 -6 5 C-6 4.34 -6 3.68 -6 3 C-4.03533587 1.93224776 -2.03144641 0.93446535 0 0 Z " fill="#00C7AA" transform="translate(44,69)"/>
<path d="M0 0 C0.66 0.33 1.32 0.66 2 1 C0.02 2.98 -1.96 4.96 -4 7 C-5.32 6.34 -6.64 5.68 -8 5 C-6.71475739 4.13619741 -5.42157581 3.28419631 -4.125 2.4375 C-3.04605469 1.72400391 -3.04605469 1.72400391 -1.9453125 0.99609375 C-1.30335938 0.66738281 -0.66140625 0.33867188 0 0 Z " fill="#0E7D98" transform="translate(188,118)"/>
<path d="M0 0 C4.95 0.99 4.95 0.99 10 2 C9.67 3.32 9.34 4.64 9 6 C8.34 6 7.68 6 7 6 C7 5.34 7 4.68 7 4 C5.35 3.67 3.7 3.34 2 3 C2 2.34 2 1.68 2 1 C1.34 0.67 0.68 0.34 0 0 Z " fill="#0E0D15" transform="translate(45,288)"/>
<path d="M0 0 C3 1 3 1 4.6875 3.9375 C6 7 6 7 6 9 C5.34 9 4.68 9 4 9 C4 8.34 4 7.68 4 7 C3.34 7 2.68 7 2 7 C2 5.68 2 4.36 2 3 C1.34 3 0.68 3 0 3 C0 2.01 0 1.02 0 0 Z " fill="#123C50" transform="translate(26,269)"/>
<path d="M0 0 C1.32 0.66 2.64 1.32 4 2 C2.68 3.32 1.36 4.64 0 6 C0 5.34 0 4.68 0 4 C-0.99 3.67 -1.98 3.34 -3 3 C-2.01 2.01 -1.02 1.02 0 0 Z " fill="#178EA5" transform="translate(179,123)"/>
<path d="M0 0 C1.258125 0.226875 2.51625 0.45375 3.8125 0.6875 C0.17826791 3.01340854 -2.95838331 2.85015833 -7.1875 2.6875 C-5.15110924 -0.49436057 -3.4972064 -0.45804119 0 0 Z " fill="#01C0A4" transform="translate(54.1875,66.3125)"/>
<path d="M0 0 C0.66 0.99 1.32 1.98 2 3 C0.6875 5.5 0.6875 5.5 -1 8 C-1.99 8 -2.98 8 -4 8 C-4 7.34 -4 6.68 -4 6 C-3.34 6 -2.68 6 -2 6 C-2 5.34 -2 4.68 -2 4 C-1.34 4 -0.68 4 0 4 C0 2.68 0 1.36 0 0 Z " fill="#00B995" transform="translate(30,80)"/>
<path d="M0 0 C0.99 0.33 1.98 0.66 3 1 C2.34 1.66 1.68 2.32 1 3 C0.67 3.99 0.34 4.98 0 6 C-2.0625 6.6875 -2.0625 6.6875 -4 7 C-2.68 4.69 -1.36 2.38 0 0 Z " fill="#0F6D9D" transform="translate(201,160)"/>
</svg>
