<?xml version="1.0" encoding="UTF-8"?>
<svg version="1.1" xmlns="http://www.w3.org/2000/svg" width="512" height="512">
<path d="M0 0 C1.80260781 -0.00015526 3.60521595 -0.00164862 5.40782166 -0.00440979 C9.17087711 -0.0057883 12.93354889 0.00667319 16.6965332 0.02954102 C21.50017357 0.05794444 26.30317832 0.05517535 31.10686588 0.0424509 C34.82426811 0.03546972 38.5415255 0.04331044 42.25890923 0.05570793 C44.02938721 0.06019731 45.79988089 0.06058141 47.57036018 0.05664253 C67.00498235 0.03363549 67.00498235 0.03363549 75.71484375 5.62109375 C83.78386411 14.25306902 82.96306246 24.47761445 82.86328125 35.59375 C82.86089272 37.35534022 82.85999237 39.11693302 82.86050415 40.87852478 C82.85738817 44.5576082 82.84091509 48.23629862 82.81396484 51.9152832 C82.77996194 56.61470861 82.77233782 61.31370391 82.77385521 66.01323795 C82.77330962 69.64652051 82.76231262 73.27971037 82.74785233 76.91296196 C82.74152022 78.6451898 82.7375539 80.37742805 82.73606491 82.10966682 C82.73169484 84.53561162 82.71411624 86.96111433 82.69287109 89.38696289 C82.69377747 90.09212036 82.69468384 90.79727783 82.69561768 91.52380371 C82.61340475 97.99217462 81.745881 104.48917942 77.71484375 109.74609375 C77.25722656 110.37 76.79960937 110.99390625 76.328125 111.63671875 C70.2165934 117.53750788 65.32924846 117.94726635 57.03051758 117.89941406 C55.61277467 117.87001019 54.19505018 117.83970687 52.77734375 117.80859375 C51.28086097 117.78864975 49.78435851 117.77014046 48.2878418 117.75292969 C44.92484326 117.7103396 41.56237675 117.65359607 38.19970703 117.59033203 C32.8583107 117.49522161 27.51733014 117.45604183 22.17523193 117.42301941 C17.38099306 117.39018523 12.58705846 117.33871597 7.79302979 117.28353882 C5.4164155 117.25866798 3.03973305 117.23960159 0.6630249 117.22647095 C-2.70955181 117.20505223 -6.08091126 117.1582267 -9.453125 117.10546875 C-10.96369225 117.10358803 -10.96369225 117.10358803 -12.504776 117.10166931 C-19.68554065 116.95260919 -25.07860653 115.47166089 -30.62109375 110.78515625 C-31.06710938 110.23601562 -31.513125 109.686875 -31.97265625 109.12109375 C-32.43414062 108.57710938 -32.895625 108.033125 -33.37109375 107.47265625 C-36.48349526 102.45713025 -36.89236547 97.37941394 -36.87231445 91.61401367 C-36.87742538 90.8473085 -36.88253632 90.08060333 -36.88780212 89.29066467 C-36.9016422 86.76921669 -36.90074526 84.24804384 -36.8984375 81.7265625 C-36.90232815 79.9630778 -36.90666358 78.19959402 -36.91142273 76.43611145 C-36.91887343 72.74342815 -36.91860249 69.05084047 -36.91333008 65.3581543 C-36.907544 60.64412232 -36.92445114 55.93048435 -36.94767475 51.21651745 C-36.96246478 47.5746281 -36.96327652 43.93283242 -36.96016502 40.29091835 C-36.96067582 38.55391982 -36.96586786 36.81691571 -36.97597694 35.07994652 C-37.07298428 16.07768118 -37.07298428 16.07768118 -31.53515625 7.18359375 C-22.56260104 -1.02533974 -11.40099441 -0.08031263 0 0 Z " fill="#0F88A6" transform="translate(71.59765625,183.50390625)"/>
<path d="M0 0 C0.73863281 0.12761719 1.47726562 0.25523437 2.23828125 0.38671875 C2.56828125 0.05671875 2.89828125 -0.27328125 3.23828125 -0.61328125 C5.09115627 -0.68554627 6.94662003 -0.69709345 8.80078125 -0.67578125 C9.81269531 -0.66675781 10.82460938 -0.65773437 11.8671875 -0.6484375 C12.64964844 -0.63683594 13.43210937 -0.62523437 14.23828125 -0.61328125 C15.38183873 1.67383371 15.37635988 2.98315172 15.39941406 5.52587891 C15.40902161 6.3808194 15.41862915 7.23575989 15.42852783 8.11660767 C15.43277771 9.04363495 15.43702759 9.97066223 15.44140625 10.92578125 C15.44710632 11.88060394 15.4528064 12.83542664 15.4586792 13.81918335 C15.46813906 15.84510182 15.47466708 17.87103575 15.47851562 19.89697266 C15.488177 22.97846925 15.51917271 26.0592863 15.55078125 29.140625 C15.55731581 31.11067313 15.5625645 33.08072603 15.56640625 35.05078125 C15.57875305 35.96566315 15.59109985 36.88054504 15.6038208 37.82315063 C15.57945727 44.9172707 14.58270991 50.61042166 9.86328125 56.19921875 C2.35277698 62.45797231 -4.183635 63.06383264 -13.76171875 62.38671875 C-19.48657776 61.17898271 -23.700041 58.54510312 -27.76171875 54.38671875 C-29.26171875 51.26171875 -29.26171875 51.26171875 -29.76171875 48.38671875 C-29.10171875 47.39671875 -28.44171875 46.40671875 -27.76171875 45.38671875 C-25.84421589 45.47415206 -23.9276521 45.58233765 -22.01171875 45.69921875 C-20.944375 45.75722656 -19.87703125 45.81523437 -18.77734375 45.875 C-15.52070188 46.42761669 -14.26850004 47.3415717 -11.76171875 49.38671875 C-8.30421926 50.05348753 -8.30421926 50.05348753 -4.76171875 49.38671875 C-1.78052334 47.15695712 -1.78052334 47.15695712 0.23828125 44.38671875 C0.23828125 43.72671875 0.23828125 43.06671875 0.23828125 42.38671875 C-0.47585938 42.71027344 -1.19 43.03382813 -1.92578125 43.3671875 C-7.71953962 45.45006758 -13.71750252 44.95641836 -19.57421875 43.32421875 C-24.89304893 40.09120432 -29.15501631 35.52140081 -30.76171875 29.38671875 C-32.59820558 21.4668693 -31.39553339 13.72899055 -27.796875 6.4296875 C-21.17419476 -2.87977405 -9.86430054 -2.19051653 0 0 Z M-15.76171875 15.38671875 C-17.38423802 19.07006819 -18.00895131 22.17802621 -17.19921875 26.13671875 C-15.30954974 29.09446155 -13.84032664 30.64663603 -10.76171875 32.38671875 C-6.4732931 32.8215293 -3.62535185 32.07762523 -0.26171875 29.38671875 C1.781781 25.29971924 2.06736558 21.87352804 1.23828125 17.38671875 C-0.55565543 14.51642006 -1.74435151 12.89540237 -4.76171875 11.38671875 C-9.83908846 10.82256656 -12.31760714 11.55992807 -15.76171875 15.38671875 Z " fill="#00A8A4" transform="translate(409.76171875,217.61328125)"/>
<path d="M0 0 C2.74869301 1.64180122 4.35759556 3.4975967 6.02734375 6.2109375 C6.68734375 7.2009375 7.34734375 8.1909375 8.02734375 9.2109375 C8.21484375 12.3359375 8.21484375 12.3359375 8.02734375 15.2109375 C6.48305903 16.75522222 4.84989099 16.62937263 2.71484375 16.8984375 C1.93496094 17.00542969 1.15507812 17.11242187 0.3515625 17.22265625 C-2.35799568 17.20899461 -3.70182593 16.65948821 -5.97265625 15.2109375 C-6.75640625 14.3446875 -7.54015625 13.4784375 -8.34765625 12.5859375 C-10.76835763 9.93764274 -10.76835763 9.93764274 -14.03515625 9.8359375 C-16.43550944 10.14236557 -18.66299856 10.5002736 -20.97265625 11.2109375 C-21.64420309 13.49435493 -21.64420309 13.49435493 -20.97265625 16.2109375 C-16.121265 20.99077431 -9.30941473 22.4164472 -2.97265625 24.25 C1.70107424 25.7470543 4.62115599 27.56230357 7.83984375 31.3359375 C10.10857545 36.82865634 10.35782869 42.1949794 9.40234375 48.0234375 C7.20035 53.12805938 4.46519524 55.49201176 -0.47265625 57.9609375 C-9.41502665 61.15464121 -17.01787932 61.22715384 -25.74609375 57.3359375 C-31.13588139 54.61267638 -33.64233398 51.54739591 -36.37109375 46.30859375 C-37.13299911 43.65181987 -36.67913487 41.8487635 -35.97265625 39.2109375 C-25.27571101 38.28966949 -25.27571101 38.28966949 -22.1328125 40.51171875 C-20.84765625 42.1484375 -20.84765625 42.1484375 -18.97265625 45.2109375 C-15.79519134 46.79966996 -12.43253423 46.62119971 -8.97265625 46.2109375 C-6.51307885 44.87262792 -6.51307885 44.87262792 -4.97265625 43.2109375 C-5.089529 40.76232949 -5.089529 40.76232949 -5.97265625 38.2109375 C-8.11611985 36.86670706 -8.11611985 36.86670706 -10.84765625 36.1484375 C-11.83765625 35.82746094 -12.82765625 35.50648438 -13.84765625 35.17578125 C-15.39453125 34.69818359 -15.39453125 34.69818359 -16.97265625 34.2109375 C-31.21987203 29.48041664 -31.21987203 29.48041664 -33.9296875 24.42578125 C-36.06945323 19.3548296 -37.12365545 14.49685458 -35.24609375 9.13671875 C-32.7696871 3.69063747 -29.90454591 0.35065799 -24.19921875 -1.8671875 C-16.04004822 -4.19837908 -7.69120762 -3.51526831 0 0 Z " fill="#00A8A4" transform="translate(323.97265625,203.7890625)"/>
<path d="M0 0 C0.97276873 12.62437641 -1.54552631 25.78463257 -9.29296875 36.12109375 C-15.1313174 42.54728528 -22.30692183 46.43913074 -29.984375 50.32421875 C-33.05810824 52.03229072 -35.47492282 53.54662674 -38 56 C-38.77535652 58.97879889 -38.77535652 58.97879889 -38.70703125 62.296875 C-38.73603516 63.50214844 -38.76503906 64.70742188 -38.79492188 65.94921875 C-38.80072266 67.20347656 -38.80652344 68.45773437 -38.8125 69.75 C-38.83763672 71.01972656 -38.86277344 72.28945313 -38.88867188 73.59765625 C-38.94758965 76.73208201 -38.9838375 79.86510958 -39 83 C-42.3 83 -45.6 83 -49 83 C-49.81578831 60.65234451 -34.35429875 33.2967494 -19.64453125 17.46484375 C-17.79312808 15.60688694 -15.92395226 13.78240809 -14 12 C-28.5631066 19.43647996 -37.43182399 32.37838204 -44 47 C-47.23154369 43.76845631 -46.42766817 39.83704545 -46.4375 35.4375 C-46.4274488 27.85018774 -46.21607145 21.91951111 -41 16 C-40.50371094 15.38382813 -40.00742188 14.76765625 -39.49609375 14.1328125 C-29.55952979 2.97512864 -14.47838164 -0.74888181 0 0 Z " fill="#FAFCFD" transform="translate(132,201)"/>
<path d="M0 0 C5.58561399 5.58561399 7.09222835 10.69246609 7.125 18.4375 C7.09326375 19.95857296 7.05506505 21.47959282 7 23 C0.83836855 23.91283429 -5.21949626 24.11021576 -11.4375 24.125 C-12.24300293 24.12951172 -13.04850586 24.13402344 -13.87841797 24.13867188 C-19.75251823 24.12374089 -19.75251823 24.12374089 -22 23 C-20.75023244 26.65316671 -20.32901247 27.78065836 -17 30 C-12.22262014 30.56574095 -12.22262014 30.56574095 -8.1328125 28.49609375 C-5.3753564 26.56183425 -3.64500709 26.6610145 -0.3125 26.75 C0.66074219 26.76546875 1.63398438 26.7809375 2.63671875 26.796875 C5 27 5 27 6 28 C6.375 30.25 6.375 30.25 6 33 C3.75 35.625 3.75 35.625 1 38 C0.401875 38.556875 -0.19625 39.11375 -0.8125 39.6875 C-6.58604193 43.15162516 -13.75154703 43.93920895 -20.26171875 42.5 C-26.82264064 40.59136818 -30.64217581 37.47335827 -34.3125 31.6875 C-36.24999709 27.56047369 -36.39375656 23.42763503 -36.4375 18.9375 C-36.4475708 18.26485107 -36.4576416 17.59220215 -36.46801758 16.89916992 C-36.36787147 11.08998559 -34.94715423 6.37026091 -31.23828125 1.85546875 C-21.83766661 -6.28664576 -10.36783614 -7.52176347 0 0 Z M-19.9375 8.3125 C-22.2029396 10.69981852 -22.2029396 10.69981852 -22 13 C-17.05 13 -12.1 13 -7 13 C-7.62841973 9.0285831 -7.62841973 9.0285831 -10 7 C-14.54462035 5.71378669 -16.13819265 5.32155591 -19.9375 8.3125 Z " fill="#00A9A5" transform="translate(464,221)"/>
<path d="M0 0 C4.45817211 4.45817211 5.81513813 9.31160675 6.24291992 15.53271484 C6.23881104 16.74652832 6.23470215 17.9603418 6.23046875 19.2109375 C6.23001053 19.86454254 6.22955231 20.51814758 6.2290802 21.19155884 C6.22608415 22.5579004 6.21827845 23.92423938 6.20581055 25.29052734 C6.18736454 27.39042087 6.18530252 29.48987703 6.18554688 31.58984375 C6.14037187 41.85962813 6.14037187 41.85962813 5 43 C3.39836084 43.09919077 1.79220082 43.12969898 0.1875 43.125 C-0.68519531 43.12757813 -1.55789063 43.13015625 -2.45703125 43.1328125 C-5 43 -5 43 -6.9296875 42.42578125 C-9.89969452 41.81496849 -12.35091796 42.48131998 -15.3125 43.0625 C-20.69295706 43.93614644 -24.09275873 44.45362063 -29 42 C-32.61511709 38.77783042 -34.22980168 36.39858743 -35.0625 31.625 C-35.34749639 26.66270986 -34.03208759 22.92224175 -31 19 C-24.93332283 14.60165905 -15.4369029 12.71344044 -8 13 C-8.66 11.68 -9.32 10.36 -10 9 C-13.3324787 8.66582071 -13.3324787 8.66582071 -17 9 C-17.91265625 9.99 -17.91265625 9.99 -18.84375 11 C-21 13 -21 13 -24.015625 13.390625 C-25.08296875 13.34421875 -26.1503125 13.2978125 -27.25 13.25 C-28.32765625 13.21390625 -29.4053125 13.1778125 -30.515625 13.140625 C-31.74539063 13.07101563 -31.74539063 13.07101563 -33 13 C-32.78142827 7.64499264 -31.63533301 4.4465104 -27.92578125 0.515625 C-20.05263348 -5.68068602 -8.16946586 -5.44631058 0 0 Z M-15.6875 25 C-16.49574219 25.185625 -17.30398438 25.37125 -18.13671875 25.5625 C-18.75160156 25.706875 -19.36648438 25.85125 -20 26 C-20.67958603 28.39719432 -20.67958603 28.39719432 -21 31 C-19.18923519 33.20063253 -19.18923519 33.20063253 -16.6875 33.375 C-13.06935056 32.87014194 -11.52900183 31.59925188 -9 29 C-8.12056596 26.36539052 -8.12056596 26.36539052 -8 24 C-10.79784711 24 -12.9790678 24.37195775 -15.6875 25 Z " fill="#019F9C" transform="translate(370,220)"/>
<path d="M0 0 C1.1539325 -0.00143509 1.1539325 -0.00143509 2.33117676 -0.00289917 C3.95857831 -0.00358004 5.58598257 -0.00173223 7.21337891 0.00244141 C9.70872073 0.007791 12.20388255 0.00249331 14.69921875 -0.00390625 C16.27864623 -0.00324545 17.8580736 -0.00196425 19.4375 0 C20.56097839 -0.00303635 20.56097839 -0.00303635 21.70715332 -0.00613403 C26.98882757 0.01785128 26.98882757 0.01785128 29.21875 1.1328125 C29.703125 3.56640625 29.703125 3.56640625 29.96875 6.5703125 C30.11570312 8.05337891 30.11570312 8.05337891 30.265625 9.56640625 C30.21875 12.1328125 30.21875 12.1328125 28.21875 14.1328125 C25.88037109 14.35986328 25.88037109 14.35986328 22.9921875 14.328125 C21.4453125 14.31845703 21.4453125 14.31845703 19.8671875 14.30859375 C18.78695312 14.29183594 17.70671875 14.27507812 16.59375 14.2578125 C15.50578125 14.24878906 14.4178125 14.23976562 13.296875 14.23046875 C10.60407351 14.20684768 7.91138465 14.17097583 5.21875 14.1328125 C5.21875 17.7628125 5.21875 21.3928125 5.21875 25.1328125 C12.14875 25.1328125 19.07875 25.1328125 26.21875 25.1328125 C28.28275794 29.26082838 27.29716911 33.81913605 26.21875 38.1328125 C15.82375 38.6278125 15.82375 38.6278125 5.21875 39.1328125 C5.25829176 45.95389723 5.25829176 45.95389723 5.30883789 52.77490234 C5.31133545 53.62262207 5.31383301 54.4703418 5.31640625 55.34375 C5.32164307 56.21306152 5.32687988 57.08237305 5.33227539 57.97802734 C5.21875 60.1328125 5.21875 60.1328125 4.21875 62.1328125 C2.07298363 62.15967188 -0.07287645 62.17914338 -2.21875 62.1953125 C-3.41371094 62.20691406 -4.60867187 62.21851563 -5.83984375 62.23046875 C-8.78125 62.1328125 -8.78125 62.1328125 -9.78125 61.1328125 C-9.87511381 59.2610031 -9.89868804 57.3856319 -9.89477539 55.51147461 C-9.89469986 54.31030502 -9.89462433 53.10913544 -9.89454651 51.87156677 C-9.88938522 50.5643013 -9.88422394 49.25703583 -9.87890625 47.91015625 C-9.87704198 46.56637118 -9.87561812 45.22258543 -9.87461853 43.87879944 C-9.87079402 40.33598973 -9.86096432 36.7932208 -9.84991455 33.25042725 C-9.83969899 29.63766023 -9.8351206 26.02488666 -9.83007812 22.41210938 C-9.81934198 15.3189937 -9.80226636 8.22590576 -9.78125 1.1328125 C-6.68038331 -0.41762084 -3.40224234 -0.009195 0 0 Z " fill="#EBECEC" transform="translate(187.78125,200.8671875)"/>
<path d="M0 0 C4.2816428 3.16841567 5.80611951 6.29698059 6.63671875 11.546875 C6.99545677 18.72163543 7.21299371 25.87892629 7.25 33.0625 C7.25475342 33.8369043 7.25950684 34.61130859 7.2644043 35.40917969 C7.25473117 38.63785614 7.15315047 41.22804859 6.125 44.3125 C1.835 44.3125 -2.455 44.3125 -6.875 44.3125 C-8.03457819 37.70560101 -7.91118498 31.29608403 -7.74804688 24.60742188 C-7.68544335 19.74275958 -7.96089937 15.88382268 -9.875 11.3125 C-13.90284093 10.16168831 -16.15598293 10.34968543 -19.875 12.3125 C-21.23260599 15.02771199 -21.0727631 17.272646 -21.15625 20.30859375 C-21.19363281 21.50677734 -21.23101562 22.70496094 -21.26953125 23.93945312 C-21.30433594 25.19693359 -21.33914062 26.45441406 -21.375 27.75 C-21.44379745 30.22798237 -21.51652884 32.70585958 -21.59375 35.18359375 C-21.63918945 36.83766235 -21.63918945 36.83766235 -21.68554688 38.52514648 C-21.875 41.3125 -21.875 41.3125 -22.875 44.3125 C-24.85409398 44.33936553 -26.83328971 44.35883375 -28.8125 44.375 C-29.91464844 44.38660156 -31.01679688 44.39820313 -32.15234375 44.41015625 C-34.875 44.3125 -34.875 44.3125 -35.875 43.3125 C-36.00715321 41.9736662 -36.07366096 40.6282394 -36.11206055 39.28344727 C-36.13846115 38.42908585 -36.16486176 37.57472443 -36.19206238 36.69447327 C-36.22654228 35.30076759 -36.22654228 35.30076759 -36.26171875 33.87890625 C-36.30000542 32.45649879 -36.30000542 32.45649879 -36.33906555 31.00535583 C-36.39117205 28.99541717 -36.44058693 26.98540724 -36.48754883 24.9753418 C-36.56210438 21.89136484 -36.65273152 18.80812689 -36.74414062 15.72460938 C-36.79265569 13.77606604 -36.84021368 11.82749859 -36.88671875 9.87890625 C-36.91577805 8.95179337 -36.94483734 8.02468048 -36.97477722 7.06947327 C-36.99172134 6.21195969 -37.00866547 5.35444611 -37.02612305 4.47094727 C-37.04531296 3.71451431 -37.06450287 2.95808136 -37.08427429 2.1787262 C-36.875 0.3125 -36.875 0.3125 -34.875 -1.6875 C-32.6328125 -1.91796875 -32.6328125 -1.91796875 -30 -1.875 C-29.13632813 -1.86855469 -28.27265625 -1.86210937 -27.3828125 -1.85546875 C-24.875 -1.6875 -24.875 -1.6875 -22.78515625 -1.11328125 C-20.00389183 -0.4933266 -17.7732618 -1.52853862 -15.0859375 -2.2578125 C-9.82574122 -3.28011213 -4.76337466 -2.39672957 0 0 Z " fill="#DFDFE0" transform="translate(276.875,218.6875)"/>
<path d="M0 0 C1.093125 0.00257813 2.18625 0.00515625 3.3125 0.0078125 C4.405625 0.00523437 5.49875 0.00265625 6.625 0 C9.3125 0.1328125 9.3125 0.1328125 10.3125 1.1328125 C10.41034502 2.47295536 10.44047977 3.81815599 10.44189453 5.16186523 C10.44504669 6.01622665 10.44819885 6.87058807 10.45144653 7.75083923 C10.4494223 8.67997635 10.44739807 9.60911346 10.4453125 10.56640625 C10.44626923 11.51467789 10.44722595 12.46294952 10.44821167 13.43995667 C10.44889363 15.44996202 10.44703823 17.45996956 10.44287109 19.4699707 C10.43752896 22.5535984 10.4428125 25.63708003 10.44921875 28.72070312 C10.44855786 30.66927116 10.44727646 32.6178391 10.4453125 34.56640625 C10.44733673 35.49351913 10.44936096 36.42063202 10.45144653 37.37583923 C10.44829437 38.23335281 10.44514221 39.09086639 10.44189453 39.97436523 C10.44070114 41.10901466 10.44070114 41.10901466 10.43948364 42.2665863 C10.3125 44.1328125 10.3125 44.1328125 9.3125 46.1328125 C7.33340602 46.15967803 5.35421029 46.17914625 3.375 46.1953125 C2.27285156 46.20691406 1.17070312 46.21851563 0.03515625 46.23046875 C-2.6875 46.1328125 -2.6875 46.1328125 -3.6875 45.1328125 C-3.78545311 43.75671368 -3.81548088 42.37567368 -3.81689453 40.99609375 C-3.82004669 40.11848389 -3.82319885 39.24087402 -3.82644653 38.33666992 C-3.8244223 37.38252197 -3.82239807 36.42837402 -3.8203125 35.4453125 C-3.82126923 34.47247314 -3.82222595 33.49963379 -3.82321167 32.49731445 C-3.82389358 30.4360345 -3.82203853 28.37475242 -3.81787109 26.31347656 C-3.812523 23.14643562 -3.81781572 19.9795365 -3.82421875 16.8125 C-3.82355797 14.81510385 -3.82227681 12.81770779 -3.8203125 10.8203125 C-3.82233673 9.86616455 -3.82436096 8.9120166 -3.82644653 7.92895508 C-3.82329437 7.05134521 -3.82014221 6.17373535 -3.81689453 5.26953125 C-3.81609894 4.49311279 -3.81530334 3.71669434 -3.81448364 2.91674805 C-3.60408121 -0.03910015 -2.97776351 0.14715692 0 0 Z " fill="#CDCED0" transform="translate(225.6875,216.8671875)"/>
<path d="M0 0 C3.25813633 1.04725811 4.53606177 2.57016768 6.1875 5.4375 C8.7071931 10.39000023 9.14866613 14.11638802 9.14526367 19.55737305 C9.14862228 20.32524643 9.1519809 21.09311981 9.15544128 21.88426208 C9.16495118 24.42676405 9.16689474 26.9692001 9.16796875 29.51171875 C9.17118245 31.28188606 9.17454661 33.0520531 9.17805481 34.82221985 C9.18404698 38.53700373 9.18589473 42.25176436 9.18530273 45.96655273 C9.18520137 50.71318756 9.19882662 55.45967193 9.21607494 60.20627117 C9.22722924 63.86526669 9.22922085 67.5242263 9.22869301 71.18323708 C9.22986899 72.9322238 9.23426924 74.68121158 9.24202538 76.4301815 C9.25189001 78.88544394 9.24892139 81.34038603 9.24291992 83.7956543 C9.24853943 84.51023804 9.25415894 85.22482178 9.25994873 85.96105957 C9.21983263 92.46261325 8.36549474 98.96445069 4.3125 104.25 C3.85488281 104.87390625 3.39726562 105.4978125 2.92578125 106.140625 C-3.18575035 112.04141413 -8.07309529 112.4511726 -16.37182617 112.40332031 C-17.78956908 112.37391644 -19.20729357 112.34361312 -20.625 112.3125 C-22.12148278 112.292556 -23.61798524 112.27404671 -25.11450195 112.25683594 C-28.47750049 112.21424585 -31.839967 112.15750232 -35.20263672 112.09423828 C-40.54403305 111.99912786 -45.88501361 111.95994808 -51.22711182 111.92692566 C-56.02135069 111.89409148 -60.81528529 111.84262222 -65.60931396 111.78744507 C-67.98592825 111.76257423 -70.3626107 111.74350784 -72.73931885 111.7303772 C-76.11189556 111.70895848 -79.48325501 111.66213295 -82.85546875 111.609375 C-84.366036 111.60749428 -84.366036 111.60749428 -85.90711975 111.60557556 C-93.12224469 111.45580218 -98.69085418 110.03749952 -104.09375 105.078125 C-104.5578125 104.47484375 -105.021875 103.8715625 -105.5 103.25 C-105.9846875 102.63640625 -106.469375 102.0228125 -106.96875 101.390625 C-107.3090625 100.93171875 -107.649375 100.4728125 -108 100 C-107.505 99.01 -107.505 99.01 -107 98 C-105 100 -105 100 -103.3125 102.4375 C-99.64741261 106.49881305 -95.36623877 108.09530139 -89.99858093 108.39440918 C-88.51964469 108.41803845 -87.04039312 108.4256713 -85.5612793 108.41992188 C-84.74726654 108.42839142 -83.93325378 108.43686096 -83.09457397 108.44558716 C-80.42096039 108.46886103 -77.7479257 108.46998149 -75.07421875 108.46875 C-73.2024564 108.47585829 -71.33069621 108.48355827 -69.4589386 108.49182129 C-65.54100485 108.50524472 -61.62327253 108.50684489 -57.70532227 108.50097656 C-52.70532767 108.495088 -47.70630659 108.52564703 -42.70650005 108.56609344 C-38.84150563 108.59205247 -34.97674292 108.59484034 -31.11167336 108.59120178 C-29.26942312 108.59288592 -27.42716135 108.60245985 -25.58499718 108.62034607 C-11.48109639 108.95995894 -11.48109639 108.95995894 1 103 C5.66423516 97.97739618 6.15351228 92.74315774 6.17700195 86.16723633 C6.18357315 85.37010223 6.19014435 84.57296814 6.19691467 83.75167847 C6.21663505 81.11179508 6.2283088 78.47196861 6.23828125 75.83203125 C6.24235678 74.929065 6.2464323 74.02609875 6.25063133 73.09576988 C6.27148888 68.31441858 6.28579073 63.53309593 6.29516602 58.75170898 C6.30621665 53.82332931 6.34060185 48.89540286 6.38033772 43.96718311 C6.40653992 40.16921677 6.41486115 36.37135771 6.41844749 32.57330894 C6.42330585 30.75731033 6.43489835 28.94131626 6.45348549 27.12540627 C6.47794919 24.57648946 6.4768988 22.02873567 6.4699707 19.47973633 C6.48278076 18.73710037 6.49559082 17.99446442 6.50878906 17.22932434 C6.44135014 10.38195059 3.73454212 5.60181319 0 0 Z " fill="#0D131E" transform="translate(145,189)"/>
<path d="M0 0 C3.3 0 6.6 0 10 0 C10 14.85 10 29.7 10 45 C6.7 45 3.4 45 0 45 C0 30.15 0 15.3 0 0 Z " fill="#FEFEFE" transform="translate(67,239)"/>
<path d="M0 0 C3.63 0 7.26 0 11 0 C11 9.9 11 19.8 11 30 C7.7 30 4.4 30 1 30 C0 29 0 29 -0.11352539 26.22436523 C-0.10828857 25.01466064 -0.10305176 23.80495605 -0.09765625 22.55859375 C-0.09443359 21.25341797 -0.09121094 19.94824219 -0.08789062 18.60351562 C-0.07953401 17.2148431 -0.07106905 15.82617123 -0.0625 14.4375 C-0.05748666 13.04492344 -0.05292347 11.65234519 -0.04882812 10.25976562 C-0.03699434 6.8398013 -0.0205088 3.41992156 0 0 Z " fill="#F9FBFC" transform="translate(50,254)"/>
<path d="M0 0 C10.97487437 -0.48241206 10.97487437 -0.48241206 15.1875 1.5 C17.67318746 4.92853443 18.2832834 7.79121803 18 12 C16.87155083 15.20717132 16.11943526 17.26202041 13.24609375 19.15625 C8.98707318 20.75616034 4.49258406 20.10696629 0 20 C0 13.4 0 6.8 0 0 Z M4 2 C4 6.95 4 11.9 4 17 C10.37013613 16.56228296 10.37013613 16.56228296 12.9375 14.8125 C14.56034621 12.04411529 14.44922076 10.14454533 14 7 C12.47981752 4.56304526 12.47981752 4.56304526 10 3 C7.03 2.505 7.03 2.505 4 2 Z " fill="#F1F2F6" transform="translate(43,302)"/>
<path d="M0 0 C0.79774841 -0.00365067 1.59549683 -0.00730133 2.41741943 -0.01106262 C5.02671279 -0.01910078 7.63537222 -0.00562203 10.24462891 0.0090332 C12.06686401 0.00955231 13.88909968 0.00903264 15.71133423 0.00752258 C19.51564984 0.00761198 23.3197521 0.0179813 27.12402344 0.03613281 C32.00677527 0.05891599 36.88921842 0.05934321 41.7720089 0.05261517 C45.52770752 0.04928076 49.28333533 0.05589365 53.03902054 0.0657444 C54.84040583 0.06959857 56.64179899 0.07074372 58.44318771 0.06915855 C60.95186274 0.06878914 63.46013526 0.08136967 65.96875 0.09765625 C66.71575165 0.09517883 67.4627533 0.09270142 68.23239136 0.09014893 C73.36743685 0.1435599 73.36743685 0.1435599 75.59619141 2.37231445 C74.53210052 2.37818069 73.46800964 2.38404694 72.37167358 2.39009094 C62.33698399 2.44733752 52.3025107 2.5201094 42.26804161 2.60802937 C37.1093744 2.65273098 31.95078613 2.69198768 26.79199219 2.71875 C21.81219995 2.74478489 16.83271152 2.78518888 11.85310745 2.83550072 C9.95458382 2.85216812 8.05600764 2.86368319 6.15742111 2.86992836 C3.49524947 2.87957076 0.83385484 2.90763164 -1.828125 2.93994141 C-2.61071686 2.93850632 -3.39330872 2.93707123 -4.19961548 2.93559265 C-10.77459321 3.04823366 -15.36141515 5.13416035 -20.27880859 9.55981445 C-20.87435547 10.08961914 -21.46990234 10.61942383 -22.08349609 11.1652832 C-22.51919922 11.56360352 -22.95490234 11.96192383 -23.40380859 12.37231445 C-22.03981623 7.90833943 -20.3047867 5.91643061 -16.40380859 3.37231445 C-10.69895304 0.88409532 -6.18530946 -0.06433759 0 0 Z " fill="#09696A" transform="translate(61.40380859375,183.627685546875)"/>
<path d="M0 0 C2.85706997 2.39625223 2.98197847 3.82879548 3.375 7.5625 C3 11 3 11 1.9375 12.875 C-1.13408409 14.65850044 -3.45638757 15 -7 15 C-9.9375 13 -9.9375 13 -12 10 C-12.53603554 5.55856266 -12.50031654 3.75047482 -10 0 C-6.20519658 -1.26493447 -3.87641726 -0.89988258 0 0 Z " fill="#EDEDEE" transform="translate(233,200)"/>
<path d="M0 0 C3.63 0 7.26 0 11 0 C12.14355748 2.28711496 12.13807863 3.59643297 12.16113281 6.13916016 C12.17074036 6.99410065 12.1803479 7.84904114 12.19024658 8.72988892 C12.19449646 9.6569162 12.19874634 10.58394348 12.203125 11.5390625 C12.20882507 12.49388519 12.21452515 13.44870789 12.22039795 14.4324646 C12.22985781 16.45838307 12.23638583 18.484317 12.24023438 20.51025391 C12.24989575 23.5917505 12.28089146 26.67256755 12.3125 29.75390625 C12.31903456 31.72395438 12.32428325 33.69400728 12.328125 35.6640625 C12.3404718 36.5789444 12.3528186 37.49382629 12.36553955 38.43643188 C12.34117602 45.53055195 11.34442866 51.22370291 6.625 56.8125 C-0.88550427 63.07125356 -7.42191625 63.67711389 -17 63 C-22.73626834 61.78985701 -26.88504793 59.11495207 -31 55 C-31.66015625 52.83984375 -31.66015625 52.83984375 -32 51 C-31.57589844 51.39832031 -31.15179688 51.79664063 -30.71484375 52.20703125 C-23.90849255 58.35518585 -18.15369647 60.55773589 -8.9375 60.28125 C-3.27279265 59.7388844 1.02715607 58.45243028 4.875 54.125 C9.07522028 47.94820546 9.32615598 42.96240848 9.4140625 35.66796875 C9.43342865 34.67622147 9.4527948 33.68447418 9.4727478 32.66267395 C9.53238453 29.5043693 9.57886555 26.3460279 9.625 23.1875 C9.6631944 21.04230208 9.70224698 18.89711925 9.7421875 16.75195312 C9.83807313 11.50142512 9.92216312 6.25082533 10 1 C6.7 1 3.4 1 0 1 C0 0.67 0 0.34 0 0 Z " fill="#0B0F1B" transform="translate(413,217)"/>
<path d="M0 0 C1.85625 0.2475 1.85625 0.2475 3.75 0.5 C4.08 0.17 4.41 -0.16 4.75 -0.5 C7.6875 -0.6875 7.6875 -0.6875 10.75 -0.5 C12.75 1.5 12.75 1.5 12.9453125 4.7578125 C12.92210938 6.03398437 12.89890625 7.31015625 12.875 8.625 C12.85695313 9.90632813 12.83890625 11.18765625 12.8203125 12.5078125 C12.79710938 13.49523437 12.77390625 14.48265625 12.75 15.5 C11.76 15.5 10.77 15.5 9.75 15.5 C9.42 11.54 9.09 7.58 8.75 3.5 C7.1 3.5 5.45 3.5 3.75 3.5 C3.75 7.46 3.75 11.42 3.75 15.5 C2.43 15.5 1.11 15.5 -0.25 15.5 C-0.25 11.21 -0.25 6.92 -0.25 2.5 C-1.9 3.16 -3.55 3.82 -5.25 4.5 C-5.58 8.13 -5.91 11.76 -6.25 15.5 C-7.24 15.5 -8.23 15.5 -9.25 15.5 C-9.25 10.55 -9.25 5.6 -9.25 0.5 C-3.66908714 -0.61618257 -3.66908714 -0.61618257 0 0 Z " fill="#F0F2F5" transform="translate(89.25,306.5)"/>
<path d="M0 0 C0.80824219 0.11085938 1.61648438 0.22171875 2.44921875 0.3359375 C3.37154297 0.47902344 3.37154297 0.47902344 4.3125 0.625 C4.36642397 3.39609307 4.40613455 6.16613818 4.4375 8.9375 C4.45425781 9.72318359 4.47101563 10.50886719 4.48828125 11.31835938 C4.49472656 12.07568359 4.50117188 12.83300781 4.5078125 13.61328125 C4.51828613 14.30977783 4.52875977 15.00627441 4.53955078 15.72387695 C4.3125 17.625 4.3125 17.625 2.3125 20.625 C-0.0703125 20.91796875 -0.0703125 20.91796875 -2.8125 20.8125 C-3.72257812 20.78542969 -4.63265625 20.75835937 -5.5703125 20.73046875 C-6.26898438 20.69566406 -6.96765625 20.66085937 -7.6875 20.625 C-7.6875 19.635 -7.6875 18.645 -7.6875 17.625 C-3.7275 17.13 -3.7275 17.13 0.3125 16.625 C0.3125 16.295 0.3125 15.965 0.3125 15.625 C-0.615625 15.686875 -1.54375 15.74875 -2.5 15.8125 C-5.6875 15.625 -5.6875 15.625 -7.5 14.5 C-9.17851602 11.84971155 -9.50015411 9.74743153 -9.6875 6.625 C-8.16766679 1.05227824 -5.7205707 -0.82906822 0 0 Z M-3.6875 2.625 C-5.83665785 5.84873677 -6.07036803 6.89203674 -5.6875 10.625 C-5.0275 11.285 -4.3675 11.945 -3.6875 12.625 C-1.08469432 12.30458603 -1.08469432 12.30458603 1.3125 11.625 C1.3125 8.985 1.3125 6.345 1.3125 3.625 C-0.3375 3.295 -1.9875 2.965 -3.6875 2.625 Z " fill="#F1F2F6" transform="translate(424.6875,306.375)"/>
<path d="M0 0 C6.6 0 13.2 0 20 0 C22.06400794 4.12801588 21.07841911 8.68632355 20 13 C9.605 13.495 9.605 13.495 -1 14 C-0.96045824 20.82108473 -0.96045824 20.82108473 -0.90991211 27.64208984 C-0.90741455 28.48980957 -0.90491699 29.3375293 -0.90234375 30.2109375 C-0.89710693 31.08024902 -0.89187012 31.94956055 -0.88647461 32.84521484 C-1 35 -1 35 -2 37 C-6.29 37 -10.58 37 -15 37 C-15.33 36.34 -15.66 35.68 -16 35 C-12.04 35 -8.08 35 -4 35 C-4 27.08 -4 19.16 -4 11 C3.26 11 10.52 11 18 11 C18 7.7 18 4.4 18 1 C12.06 1 6.12 1 0 1 C0 0.67 0 0.34 0 0 Z " fill="#272B33" transform="translate(194,226)"/>
<path d="M0 0 C1.43655854 -0.08131463 2.8744483 -0.13933559 4.3125 -0.1875 C5.51326172 -0.23970703 5.51326172 -0.23970703 6.73828125 -0.29296875 C9 0 9 0 10.78125 1.09375 C12.60763905 3.9504098 12.28691682 6.34046705 12.1875 9.6875 C12.16042969 10.86699219 12.13335937 12.04648437 12.10546875 13.26171875 C12.07066406 14.16535156 12.03585937 15.06898438 12 16 C10.04233719 16.08082094 8.08373272 16.13910778 6.125 16.1875 C4.48917969 16.23970703 4.48917969 16.23970703 2.8203125 16.29296875 C1.88960938 16.19628906 0.95890625 16.09960938 0 16 C-2 13 -2 13 -1.8125 10.4375 C-1 8 -1 8 2 6 C5.1875 5.875 5.1875 5.875 8 6 C7.67 5.34 7.34 4.68 7 4 C4.69 4 2.38 4 0 4 C0 2.68 0 1.36 0 0 Z M3 9 C2.67 10.32 2.34 11.64 2 13 C3.65 13 5.3 13 7 13 C7.33 11.68 7.66 10.36 8 9 C6.35 9 4.7 9 3 9 Z " fill="#F0F1F5" transform="translate(256,306)"/>
<path d="M0 0 C1.9375 1.125 1.9375 1.125 3 3 C3.1875 6.1875 3.1875 6.1875 3 9 C-0.3 9 -3.6 9 -7 9 C-6.67 9.99 -6.34 10.98 -6 12 C-3.03 12 -0.06 12 3 12 C2.67 13.32 2.34 14.64 2 16 C0.3973218 16.10824843 -1.20745748 16.18570645 -2.8125 16.25 C-3.70582031 16.29640625 -4.59914063 16.3428125 -5.51953125 16.390625 C-8 16 -8 16 -9.796875 14.234375 C-11.65662465 10.78055422 -11.68919034 7.82187371 -11 4 C-8.15614633 -0.55016587 -5.11496172 -0.65099513 0 0 Z M-7 4 C-7 4.66 -7 5.32 -7 6 C-4.69 6 -2.38 6 0 6 C-0.66 5.01 -1.32 4.02 -2 3 C-4.9254644 2.7763932 -4.9254644 2.7763932 -7 4 Z " fill="#F0F1F6" transform="translate(388,306)"/>
<path d="M0 0 C1.9375 1.125 1.9375 1.125 3 3 C3.1875 6.1875 3.1875 6.1875 3 9 C-0.3 9 -3.6 9 -7 9 C-6.67 9.99 -6.34 10.98 -6 12 C-3.03 12 -0.06 12 3 12 C2.67 13.32 2.34 14.64 2 16 C0.3973218 16.10824843 -1.20745748 16.18570645 -2.8125 16.25 C-3.70582031 16.29640625 -4.59914062 16.3428125 -5.51953125 16.390625 C-8 16 -8 16 -9.796875 14.234375 C-11.65662465 10.78055422 -11.68919034 7.82187371 -11 4 C-8.15614633 -0.55016587 -5.11496172 -0.65099513 0 0 Z M-7 4 C-7 4.66 -7 5.32 -7 6 C-4.69 6 -2.38 6 0 6 C-0.66 5.01 -1.32 4.02 -2 3 C-4.9254644 2.7763932 -4.9254644 2.7763932 -7 4 Z " fill="#F0F1F6" transform="translate(206,306)"/>
<path d="M0 0 C1.9375 1.125 1.9375 1.125 3 3 C3.1875 6.1875 3.1875 6.1875 3 9 C-0.3 9 -3.6 9 -7 9 C-6.67 9.99 -6.34 10.98 -6 12 C-3.03 12 -0.06 12 3 12 C2.67 13.32 2.34 14.64 2 16 C0.3973218 16.10824843 -1.20745748 16.18570645 -2.8125 16.25 C-3.70582031 16.29640625 -4.59914063 16.3428125 -5.51953125 16.390625 C-8 16 -8 16 -9.796875 14.234375 C-11.65662465 10.78055422 -11.68919034 7.82187371 -11 4 C-8.15614633 -0.55016587 -5.11496172 -0.65099513 0 0 Z M-7 4 C-7 4.66 -7 5.32 -7 6 C-4.69 6 -2.38 6 0 6 C-0.66 5.01 -1.32 4.02 -2 3 C-4.9254644 2.7763932 -4.9254644 2.7763932 -7 4 Z " fill="#F0F1F6" transform="translate(74,306)"/>
<path d="M0 0 C0.99 0.66 1.98 1.32 3 2 C3.6875 5.625 3.6875 5.625 4 9 C0.37 9 -3.26 9 -7 9 C-6.01 10.485 -6.01 10.485 -5 12 C-3.02252878 12.36297936 -3.02252878 12.36297936 -0.875 12.1875 C0.40375 12.125625 1.6825 12.06375 3 12 C3 13.32 3 14.64 3 16 C1.39667209 16.08121924 -0.20784026 16.13929134 -1.8125 16.1875 C-3.15248047 16.23970703 -3.15248047 16.23970703 -4.51953125 16.29296875 C-7 16 -7 16 -8.7734375 14.66796875 C-10.61508725 12.16355969 -10.81551518 10.07474705 -11 7 C-9.31204992 0.81084972 -6.20283086 -0.51690257 0 0 Z M-5 3 C-5.99 4.485 -5.99 4.485 -7 6 C-4.69 6 -2.38 6 0 6 C-0.33 5.01 -0.66 4.02 -1 3 C-2.32 3 -3.64 3 -5 3 Z " fill="#F1F2F6" transform="translate(490,306)"/>
<path d="M0 0 C0.99 0.66 1.98 1.32 3 2 C3.6875 5.625 3.6875 5.625 4 9 C0.37 9 -3.26 9 -7 9 C-6.01 10.485 -6.01 10.485 -5 12 C-3.02252878 12.36297936 -3.02252878 12.36297936 -0.875 12.1875 C0.40375 12.125625 1.6825 12.06375 3 12 C3 13.32 3 14.64 3 16 C1.39667209 16.08121924 -0.20784026 16.13929134 -1.8125 16.1875 C-3.15248047 16.23970703 -3.15248047 16.23970703 -4.51953125 16.29296875 C-7 16 -7 16 -8.7734375 14.66796875 C-10.61508725 12.16355969 -10.81551518 10.07474705 -11 7 C-9.31204992 0.81084972 -6.20283086 -0.51690257 0 0 Z M-5 3 C-5.99 4.485 -5.99 4.485 -7 6 C-4.69 6 -2.38 6 0 6 C-0.33 5.01 -0.66 4.02 -1 3 C-2.32 3 -3.64 3 -5 3 Z " fill="#F1F2F6" transform="translate(443,306)"/>
<path d="M0 0 C1.258125 -0.04125 2.51625 -0.0825 3.8125 -0.125 C4.52019531 -0.14820313 5.22789062 -0.17140625 5.95703125 -0.1953125 C8 0 8 0 11 2 C11.29296875 5.2578125 11.29296875 5.2578125 11.1875 9.125 C11.16042969 10.40632813 11.13335937 11.68765625 11.10546875 13.0078125 C11.07066406 13.99523437 11.03585937 14.98265625 11 16 C9.20866022 16.05391993 7.41686101 16.09275571 5.625 16.125 C4.62726563 16.14820313 3.62953125 16.17140625 2.6015625 16.1953125 C0 16 0 16 -2 14 C-2.3125 11 -2.3125 11 -2 8 C1.6441774 5.5705484 3.71241272 5.83820425 8 6 C7.67 5.34 7.34 4.68 7 4 C4.36 4 1.72 4 -1 4 C-0.67 2.68 -0.34 1.36 0 0 Z M3 9 C2.01 10.485 2.01 10.485 1 12 C2.06645115 13.29633621 2.06645115 13.29633621 4.5625 13.0625 C5.366875 13.041875 6.17125 13.02125 7 13 C7.33 11.68 7.66 10.36 8 9 C5.58380177 8.74969023 5.58380177 8.74969023 3 9 Z " fill="#F0F1F5" transform="translate(311,306)"/>
<path d="M0 0 C1.258125 -0.04125 2.51625 -0.0825 3.8125 -0.125 C4.52019531 -0.14820313 5.22789062 -0.17140625 5.95703125 -0.1953125 C8 0 8 0 11 2 C11.29296875 5.2578125 11.29296875 5.2578125 11.1875 9.125 C11.16042969 10.40632813 11.13335937 11.68765625 11.10546875 13.0078125 C11.07066406 13.99523437 11.03585938 14.98265625 11 16 C9.20866022 16.05391993 7.41686101 16.09275571 5.625 16.125 C4.62726563 16.14820313 3.62953125 16.17140625 2.6015625 16.1953125 C0 16 0 16 -2 14 C-2.3125 11 -2.3125 11 -2 8 C1.6441774 5.5705484 3.71241272 5.83820425 8 6 C7.67 5.34 7.34 4.68 7 4 C4.36 4 1.72 4 -1 4 C-0.67 2.68 -0.34 1.36 0 0 Z M3 9 C2.01 10.485 2.01 10.485 1 12 C2.06645115 13.29633621 2.06645115 13.29633621 4.5625 13.0625 C5.366875 13.041875 6.17125 13.02125 7 13 C7.33 11.68 7.66 10.36 8 9 C5.58380177 8.74969023 5.58380177 8.74969023 3 9 Z " fill="#F0F1F5" transform="translate(149,306)"/>
<path d="M0 0 C3.83412335 1.50626274 5.72845467 3.59268201 8 7 C10.2301388 12.68685393 10.21756575 17.99276779 10 24 C3.83836855 24.91283429 -2.21949626 25.11021576 -8.4375 25.125 C-9.24300293 25.12951172 -10.04850586 25.13402344 -10.87841797 25.13867188 C-16.75251823 25.12374089 -16.75251823 25.12374089 -19 24 C-17.60240095 27.54518884 -17.60240095 27.54518884 -16 31 C-17.875 30.4375 -17.875 30.4375 -20 29 C-20.66 26.69 -21.32 24.38 -22 22 C-12.1 22 -2.2 22 8 22 C6.9283742 10.89121953 6.9283742 10.89121953 2 3 C1.34 2.01 0.68 1.02 0 0 Z " fill="#0B272E" transform="translate(461,220)"/>
<path d="M0 0 C2.35438074 2.34874825 2.96845005 3.67524581 3.29296875 7.015625 C3.25816406 8.08296875 3.22335937 9.1503125 3.1875 10.25 C3.16042969 11.32765625 3.13335937 12.4053125 3.10546875 13.515625 C3.07066406 14.33546875 3.03585937 15.1553125 3 16 C1.68 16 0.36 16 -1 16 C-1.33 12.04 -1.66 8.08 -2 4 C-3.65 4 -5.3 4 -7 4 C-7 7.96 -7 11.92 -7 16 C-8.32 16 -9.64 16 -11 16 C-11 11.05 -11 6.1 -11 1 C-2.76119403 -0.37313433 -2.76119403 -0.37313433 0 0 Z " fill="#F0F1F6" transform="translate(460,306)"/>
<path d="M0 0 C2.35438074 2.34874825 2.96845005 3.67524581 3.29296875 7.015625 C3.25816406 8.08296875 3.22335937 9.1503125 3.1875 10.25 C3.16042969 11.32765625 3.13335937 12.4053125 3.10546875 13.515625 C3.07066406 14.33546875 3.03585937 15.1553125 3 16 C1.68 16 0.36 16 -1 16 C-1.33 12.04 -1.66 8.08 -2 4 C-3.65 4 -5.3 4 -7 4 C-7 7.96 -7 11.92 -7 16 C-8.32 16 -9.64 16 -11 16 C-11 11.05 -11 6.1 -11 1 C-2.76119403 -0.37313433 -2.76119403 -0.37313433 0 0 Z " fill="#F0F1F6" transform="translate(361,306)"/>
<path d="M0 0 C2.35438074 2.34874825 2.96845005 3.67524581 3.29296875 7.015625 C3.25816406 8.08296875 3.22335937 9.1503125 3.1875 10.25 C3.16042969 11.32765625 3.13335937 12.4053125 3.10546875 13.515625 C3.07066406 14.33546875 3.03585937 15.1553125 3 16 C1.68 16 0.36 16 -1 16 C-1.33 12.04 -1.66 8.08 -2 4 C-3.65 4 -5.3 4 -7 4 C-7 7.96 -7 11.92 -7 16 C-8.32 16 -9.64 16 -11 16 C-11 11.05 -11 6.1 -11 1 C-2.76119403 -0.37313433 -2.76119403 -0.37313433 0 0 Z " fill="#F0F1F6" transform="translate(282,306)"/>
<path d="M0 0 C2.35438074 2.34874825 2.96845005 3.67524581 3.29296875 7.015625 C3.25816406 8.08296875 3.22335938 9.1503125 3.1875 10.25 C3.16042969 11.32765625 3.13335937 12.4053125 3.10546875 13.515625 C3.07066406 14.33546875 3.03585938 15.1553125 3 16 C1.68 16 0.36 16 -1 16 C-1.33 12.04 -1.66 8.08 -2 4 C-3.65 4 -5.3 4 -7 4 C-7 7.96 -7 11.92 -7 16 C-8.32 16 -9.64 16 -11 16 C-11 11.05 -11 6.1 -11 1 C-2.76119403 -0.37313433 -2.76119403 -0.37313433 0 0 Z " fill="#F0F1F6" transform="translate(249,306)"/>
<path d="M0 0 C3.1741318 2.75648288 3.9238874 4.38022598 4.4375 8.5625 C3.7659306 13.83911672 3.7659306 13.83911672 1 16 C-2.5660909 16.65378333 -5.76086848 16.71949572 -8.9375 14.875 C-10.97348152 11.28209144 -11.33232961 8.2185419 -10.25 4.25 C-7.79332966 -0.17200661 -4.71678209 -0.67382601 0 0 Z M-5 3 C-7.32483785 4.88375675 -7.32483785 4.88375675 -7.1875 8 C-7.20079609 10.92386603 -7.20079609 10.92386603 -6 13 C-4.33388095 13.042721 -2.66617115 13.04063832 -1 13 C0.39287806 11.82963695 0.39287806 11.82963695 0.1875 8.5625 C0.39564928 4.94967279 0.39564928 4.94967279 -2 3 C-2.99 3 -3.98 3 -5 3 Z " fill="#F0F1F5" transform="translate(116,306)"/>
<path d="M0 0 C2.54508827 0.96537831 3.92083611 1.90617613 5.6875 4 C8.10063112 9.51572827 8.34242567 14.91120343 7.375 20.8125 C5.17300625 25.91712188 2.43785149 28.28107426 -2.5 30.75 C-11.45724223 33.94901508 -18.99897794 33.97630246 -27.7578125 30.15625 C-30.48302497 28.75091395 -32.75985383 27.09080309 -35 25 C-34.67 24.34 -34.34 23.68 -34 23 C-33.34 23.598125 -32.68 24.19625 -32 24.8125 C-24.82075416 30.04736676 -17.7077196 31.02982229 -9 30 C-3.30925809 28.42722438 0.88744917 26.18758472 4 21 C5.54525333 17.26563779 5.44465927 12.97893377 5 9 C3.61802549 5.67069777 1.99743332 2.99614997 0 0 Z " fill="#0C0F18" transform="translate(326,231)"/>
<path d="M0 0 C1.14662109 0.01933594 1.14662109 0.01933594 2.31640625 0.0390625 C4.4375 0.375 4.4375 0.375 7.4375 2.375 C7.1075 3.035 6.7775 3.695 6.4375 4.375 C5.4475 3.715 4.4575 3.055 3.4375 2.375 C0.4398768 2.56235145 -1.73760741 2.79283722 -4.22021484 4.54492188 C-6.15127155 7.177734 -5.98047657 9.22794801 -6.0390625 12.46875 C-6.08546875 14.26119141 -6.08546875 14.26119141 -6.1328125 16.08984375 C-6.15085938 17.33894531 -6.16890625 18.58804688 -6.1875 19.875 C-6.23845624 22.34382983 -6.29297509 24.81258947 -6.3515625 27.28125 C-6.36912598 28.37759766 -6.38668945 29.47394531 -6.40478516 30.60351562 C-6.5625 33.375 -6.5625 33.375 -7.5625 36.375 C-11.5225 36.375 -15.4825 36.375 -19.5625 36.375 C-19.8925 35.715 -20.2225 35.055 -20.5625 34.375 C-16.6025 34.375 -12.6425 34.375 -8.5625 34.375 C-8.58344727 33.4871582 -8.60439453 32.59931641 -8.62597656 31.68457031 C-8.69425677 28.38205545 -8.7443487 25.0802933 -8.78222656 21.77734375 C-8.80230982 20.34948879 -8.82958252 18.92171575 -8.86425781 17.49414062 C-8.91292669 15.43859632 -8.93549967 13.38414145 -8.953125 11.328125 C-8.97407227 10.09223633 -8.99501953 8.85634766 -9.01660156 7.58300781 C-8.25287709 2.18766398 -5.38290537 -0.20037888 0 0 Z " fill="#060913" transform="translate(261.5625,226.625)"/>
<path d="M0 0 C0.66 0.33 1.32 0.66 2 1 C2 2.32 2 3.64 2 5 C-0.31 4.67 -2.62 4.34 -5 4 C-6.87543354 7.86763446 -6.87543354 7.86763446 -6 12 C-3.36 12 -0.72 12 2 12 C1.67 13.32 1.34 14.64 1 16 C-7.15384615 16.61538462 -7.15384615 16.61538462 -10.0625 14.5 C-11.4051456 10.91961173 -11.6799589 7.77068116 -11 4 C-8.13125414 -0.58999337 -5.13686256 -0.47563542 0 0 Z " fill="#F1F2F6" transform="translate(133,306)"/>
<path d="M0 0 C3.96 0 7.92 0 12 0 C11.10830166 3.56679337 10.5329766 4.95603121 8.4375 7.75 C7.75494141 8.67039062 7.75494141 8.67039062 7.05859375 9.609375 C6.70925781 10.06828125 6.35992187 10.5271875 6 11 C8.31 11.33 10.62 11.66 13 12 C13 12.99 13 13.98 13 15 C8.71 15 4.42 15 0 15 C1.125 9.375 1.125 9.375 4.0625 6.1875 C4.61035156 5.58292969 5.15820312 4.97835938 5.72265625 4.35546875 C6.14417969 3.90816406 6.56570312 3.46085937 7 3 C4.69 2.67 2.38 2.34 0 2 C0 1.34 0 0.68 0 0 Z " fill="#F1F2F6" transform="translate(181,307)"/>
<path d="M0 0 C0.66 0.33 1.32 0.66 2 1 C1.67 2.32 1.34 3.64 1 5 C-1.97 4.505 -1.97 4.505 -5 4 C-5.38063221 6.3260857 -5.71269945 8.66055264 -6 11 C-4.81575674 12.41577477 -4.81575674 12.41577477 -1.4375 12.0625 C0.2640625 12.0315625 0.2640625 12.0315625 2 12 C2 13.32 2 14.64 2 16 C0.56344146 16.08131463 -0.8744483 16.13933559 -2.3125 16.1875 C-3.51326172 16.23970703 -3.51326172 16.23970703 -4.73828125 16.29296875 C-7 16 -7 16 -8.73828125 14.69921875 C-10.80819618 11.91156242 -10.88237435 9.41114392 -11 6 C-8.36701577 0.23251074 -6.12118337 -0.25504931 0 0 Z " fill="#F1F2F6" transform="translate(476,306)"/>
<path d="M0 0 C0.66 0.33 1.32 0.66 2 1 C1.67 2.32 1.34 3.64 1 5 C-1.97 4.505 -1.97 4.505 -5 4 C-5.38063221 6.3260857 -5.71269945 8.66055264 -6 11 C-4.81575674 12.41577477 -4.81575674 12.41577477 -1.4375 12.0625 C0.2640625 12.0315625 0.2640625 12.0315625 2 12 C2 13.32 2 14.64 2 16 C0.56344146 16.08131463 -0.8744483 16.13933559 -2.3125 16.1875 C-3.51326172 16.23970703 -3.51326172 16.23970703 -4.73828125 16.29296875 C-7 16 -7 16 -8.73828125 14.69921875 C-10.80819618 11.91156242 -10.88237435 9.41114392 -11 6 C-8.36701577 0.23251074 -6.12118337 -0.25504931 0 0 Z " fill="#F1F2F6" transform="translate(298,306)"/>
<path d="M0 0 C1.32 0 2.64 0 4 0 C4 1.32 4 2.64 4 4 C5.65 4 7.3 4 9 4 C9 4.66 9 5.32 9 6 C7.35 6 5.7 6 4 6 C4 9.3 4 12.6 4 16 C5.65 16 7.3 16 9 16 C9 16.99 9 17.98 9 19 C6.69 19 4.38 19 2 19 C-0.85474845 13.29050309 -1.88785869 6.14618658 0 0 Z " fill="#F2F3F7" transform="translate(367,303)"/>
<path d="M0 0 C0.99 0 1.98 0 3 0 C3 1.32 3 2.64 3 4 C4.98 4 6.96 4 9 4 C9 4.66 9 5.32 9 6 C7.02 6 5.04 6 3 6 C3.33 9.3 3.66 12.6 4 16 C5.65 16 7.3 16 9 16 C9 16.99 9 17.98 9 19 C5.625 19.125 5.625 19.125 2 19 C0 17 0 17 -0.1953125 14.3984375 C-0.17210937 13.40070313 -0.14890625 12.40296875 -0.125 11.375 C-0.10695312 10.37210937 -0.08890625 9.36921875 -0.0703125 8.3359375 C-0.04710937 7.56507813 -0.02390625 6.79421875 0 6 C-0.66 6 -1.32 6 -2 6 C-2 5.34 -2 4.68 -2 4 C-1.34 4 -0.68 4 0 4 C0 2.68 0 1.36 0 0 Z " fill="#F1F2F6" transform="translate(164,303)"/>
<path d="M0 0 C2.31 0 4.62 0 7 0 C7 0.99 7 1.98 7 3 C5.35 3 3.7 3 2 3 C2 3.99 2 4.98 2 6 C3.32 6 4.64 6 6 6 C6 6.66 6 7.32 6 8 C4.68 8 3.36 8 2 8 C2 12.29 2 16.58 2 21 C1.01 21 0.02 21 -1 21 C-1 16.71 -1 12.42 -1 8 C-1.66 8 -2.32 8 -3 8 C-3 7.34 -3 6.68 -3 6 C-2.34 6 -1.68 6 -1 6 C-0.67 4.02 -0.34 2.04 0 0 Z " fill="#F1F2F6" transform="translate(223,301)"/>
<path d="M0 0 C1.32 0 2.64 0 4 0 C4 6.93 4 13.86 4 21 C2.68 21 1.36 21 0 21 C0 14.07 0 7.14 0 0 Z " fill="#ECEDF0" transform="translate(401,301)"/>
<path d="M0 0 C0.33 0 0.66 0 1 0 C1.3125 2.1875 1.3125 2.1875 1 5 C-1.25 7.625 -1.25 7.625 -4 10 C-4.598125 10.556875 -5.19625 11.11375 -5.8125 11.6875 C-11.55222401 15.1313344 -18.83958106 16.03302919 -25.296875 14.4296875 C-29.35017119 13.17131123 -32.81275622 11.91009215 -36 9 C-35.67 8.34 -35.34 7.68 -35 7 C-34.40574219 7.3609375 -33.81148438 7.721875 -33.19921875 8.09375 C-26.7198746 11.72137659 -21.40562049 13.29572023 -14 12 C-8.58945207 10.27258174 -4.28612448 8.21302015 -1.375 3.1875 C-0.92125 2.135625 -0.4675 1.08375 0 0 Z " fill="#0C121D" transform="translate(469,249)"/>
<path d="M0 0 C3 2 3 2 5 4 C4.67 4.66 4.34 5.32 4 6 C3.46375 5.505 2.9275 5.01 2.375 4.5 C-0.74008151 2.5325801 -2.37170989 2.4076261 -6 3 C-9.23334344 5.4429706 -10.72511247 7.12035991 -11.9375 11 C-12.03343946 15.60509405 -10.51683094 18.22475359 -8 22 C-11.16115776 20.63016497 -11.9927092 20.0109362 -14 17 C-14.68869056 11.82681279 -14.84213522 7.40355869 -12.125 2.875 C-8.40990024 -0.4030292 -4.82394556 -0.71021761 0 0 Z " fill="#0C171F" transform="translate(405,227)"/>
<path d="M0 0 C3.3 0 6.6 0 10 0 C10 0.99 10 1.98 10 3 C8.02 3.66 6.04 4.32 4 5 C3.67 8.3 3.34 11.6 3 15 C2.01 15 1.02 15 0 15 C0 10.05 0 5.1 0 0 Z " fill="#F0F1F5" transform="translate(137,307)"/>
<path d="M0 0 C0.79148437 -0.02578125 1.58296875 -0.0515625 2.3984375 -0.078125 C4.625 0.25 4.625 0.25 6.40234375 1.59765625 C8.07348714 3.85610243 7.84696386 5.51244569 7.625 8.25 C5.645 8.25 3.665 8.25 1.625 8.25 C1.625 7.92 1.625 7.59 1.625 7.25 C3.275 7.25 4.925 7.25 6.625 7.25 C5.965 5.93 5.305 4.61 4.625 3.25 C1.2925213 2.91582071 1.2925213 2.91582071 -2.375 3.25 C-2.9834375 3.91 -3.591875 4.57 -4.21875 5.25 C-6.375 7.25 -6.375 7.25 -9.390625 7.640625 C-10.99164063 7.57101563 -10.99164063 7.57101563 -12.625 7.5 C-13.70265625 7.46390625 -14.7803125 7.4278125 -15.890625 7.390625 C-16.71046875 7.34421875 -17.5303125 7.2978125 -18.375 7.25 C-18.375 6.59 -18.375 5.93 -18.375 5.25 C-14.745 5.25 -11.115 5.25 -7.375 5.25 C-6.715 3.93 -6.055 2.61 -5.375 1.25 C-3.79577594 -0.32922406 -2.18056126 0.042341 0 0 Z " fill="#0E121A" transform="translate(355.375,225.75)"/>
<path d="M0 0 C0.86625 -0.00773438 1.7325 -0.01546875 2.625 -0.0234375 C5.39380767 0.44106642 6.26929299 1.22300246 8 3.375 C7.67 4.035 7.34 4.695 7 5.375 C6.34 4.715 5.68 4.055 5 3.375 C1.62057268 2.36831283 1.62057268 2.36831283 -2 2.375 C-4.41281883 4.21636174 -5.65150913 5.67801826 -7 8.375 C-5.75283203 8.24931641 -5.75283203 8.24931641 -4.48046875 8.12109375 C-3.39378906 8.01925781 -2.30710937 7.91742188 -1.1875 7.8125 C-0.10855469 7.70808594 0.97039062 7.60367188 2.08203125 7.49609375 C5 7.375 5 7.375 8 8.375 C8.33 7.715 8.66 7.055 9 6.375 C9 7.365 9 8.355 9 9.375 C3.06 9.375 -2.88 9.375 -9 9.375 C-8 3.375 -8 3.375 -6.75 1.5234375 C-4.40787468 -0.01358224 -2.78574208 -0.0248727 0 0 Z " fill="#08242E" transform="translate(449,225.625)"/>
<path d="M0 0 C0.99 0 1.98 0 3 0 C3 6.93 3 13.86 3 21 C2.01 21 1.02 21 0 21 C0 14.07 0 7.14 0 0 Z " fill="#F1F1F6" transform="translate(394,301)"/>
<path d="M0 0 C0.99 0 1.98 0 3 0 C3 6.93 3 13.86 3 21 C2.01 21 1.02 21 0 21 C0 14.07 0 7.14 0 0 Z " fill="#F1F1F6" transform="translate(326,301)"/>
<path d="M0 0 C0.54269531 0.42152344 1.08539063 0.84304687 1.64453125 1.27734375 C2.35996094 1.82519531 3.07539063 2.37304688 3.8125 2.9375 C4.87404297 3.75541016 4.87404297 3.75541016 5.95703125 4.58984375 C10.98660656 8.0615009 17.13702924 7.58176385 23 7 C25.75229642 5.9495402 27.59513954 4.74898942 30 3 C29.875 4.8125 29.875 4.8125 29 7 C23.81826692 10.81811911 18.16340559 10.65491792 12 10 C6.87562239 8.76440241 3.38650259 6.00223034 0 2 C0 1.34 0 0.68 0 0 Z " fill="#0C1A24" transform="translate(382,252)"/>
<path d="M0 0 C1.32 0 2.64 0 4 0 C4 4.95 4 9.9 4 15 C2.68 15 1.36 15 0 15 C0 10.05 0 5.1 0 0 Z " fill="#ECEDF0" transform="translate(302,307)"/>
<path d="M0 0 C1.32 0 2.64 0 4 0 C4 4.95 4 9.9 4 15 C2.68 15 1.36 15 0 15 C0 10.05 0 5.1 0 0 Z " fill="#ECEDF0" transform="translate(174,307)"/>
<path d="M0 0 C3.875 1.75 3.875 1.75 5 4 C5.45118483 10.20379147 5.45118483 10.20379147 3.9375 12.875 C0.95416069 14.60726153 -1.57664374 14.87988224 -5 15 C-7.4375 13.5625 -7.4375 13.5625 -9 12 C-8.67 11.34 -8.34 10.68 -8 10 C-7.67 10.33 -7.34 10.66 -7 11 C-5.48071962 11.07179964 -3.95832518 11.08392007 -2.4375 11.0625 C-1.19806641 11.04896484 -1.19806641 11.04896484 0.06640625 11.03515625 C0.70449219 11.02355469 1.34257812 11.01195312 2 11 C2.04125 9.741875 2.0825 8.48375 2.125 7.1875 C2.15980469 6.12595703 2.15980469 6.12595703 2.1953125 5.04296875 C2.13254462 2.68640281 2.13254462 2.68640281 0 0 Z " fill="#1F2631" transform="translate(231,200)"/>
<path d="M0 0 C0.46148437 0.3609375 0.92296875 0.721875 1.3984375 1.09375 C6.87230873 4.98820384 11.33000104 6.08099983 18 5 C20.90924342 3.77401355 20.90924342 3.77401355 23 2 C23.99 1.34 24.98 0.68 26 0 C26 1.65 26 3.3 26 5 C20.05680483 7.97159758 13.58705652 8.4589939 7.125 7.3125 C3.89333537 5.95520086 2.14839262 4.74994255 0 2 C0 1.34 0 0.68 0 0 Z " fill="#0B0F15" transform="translate(337,256)"/>
<path d="M0 0 C4.22963468 1.51058382 5.91246173 4.12314321 8 8 C8.3125 11.3125 8.3125 11.3125 8 14 C6.44574004 15.55425996 4.77165073 15.42003704 2.625 15.6875 C1.43777344 15.84798828 1.43777344 15.84798828 0.2265625 16.01171875 C-2 16 -2 16 -5 14 C-3.5422647 13.664061 -2.08378894 13.33133376 -0.625 13 C0.59316406 12.7215625 0.59316406 12.7215625 1.8359375 12.4375 C4 12 4 12 6 12 C3.8006072 5.56843049 3.8006072 5.56843049 0 0 Z " fill="#0B161F" transform="translate(324,205)"/>
<path d="M0 0 C0.33 1.32 0.66 2.64 1 4 C-5.435 4.495 -5.435 4.495 -12 5 C-12 6.98 -12 8.96 -12 11 C-12.66 11 -13.32 11 -14 11 C-14.33 9.02 -14.66 7.04 -15 5 C-11.84821256 2.26094663 -9.35182386 1.44730607 -5.25 0.8125 C-4.26515625 0.65394531 -3.2803125 0.49539062 -2.265625 0.33203125 C-1.51796875 0.22246094 -0.7703125 0.11289063 0 0 Z " fill="#0D1A23" transform="translate(362,241)"/>
<path d="M0 0 C0.39799805 0.39614502 0.79599609 0.79229004 1.20605469 1.20043945 C5.86851975 5.54911027 10.16816863 7.46763785 16.25 9.1875 C17.84101593 9.65175947 19.42969547 10.12412057 21.015625 10.60546875 C21.70946289 10.80293701 22.40330078 11.00040527 23.11816406 11.20385742 C25.27353077 12.11572182 26.45988372 13.26060638 28 15 C6.06118881 9.3986014 6.06118881 9.3986014 1 4 C0.3828125 1.875 0.3828125 1.875 0 0 Z " fill="#0C121A" transform="translate(290,226)"/>
<path d="M0 0 C2.5625 2.0625 2.5625 2.0625 4 4 C3.67 4.99 3.34 5.98 3 7 C2.29875 6.175 1.5975 5.35 0.875 4.5 C-1.75775797 1.73975129 -1.75775797 1.73975129 -5.0625 1.625 C-7.46285319 1.93142807 -9.69034231 2.2893361 -12 3 C-12.20086443 6.71599191 -12.1519437 7.77208445 -10 11 C-11.32 10.34 -12.64 9.68 -14 9 C-14.3125 5.6875 -14.3125 5.6875 -14 2 C-10.08462745 -2.04167489 -5.07486519 -1.43914087 0 0 Z " fill="#0B1C21" transform="translate(315,212)"/>
<path d="M0 0 C0.99 0 1.98 0 3 0 C3 4.95 3 9.9 3 15 C2.01 15 1.02 15 0 15 C0 10.05 0 5.1 0 0 Z " fill="#F1F1F6" transform="translate(409,307)"/>
<path d="M0 0 C0.99 0 1.98 0 3 0 C3 4.95 3 9.9 3 15 C2.01 15 1.02 15 0 15 C0 10.05 0 5.1 0 0 Z " fill="#F1F1F6" transform="translate(343,307)"/>
<path d="M0 0 C0.99 0 1.98 0 3 0 C3 4.95 3 9.9 3 15 C2.01 15 1.02 15 0 15 C0 10.05 0 5.1 0 0 Z " fill="#F1F1F6" transform="translate(231,307)"/>
<path d="M0 0 C0.99 0.66 1.98 1.32 3 2 C2.67 2.66 2.34 3.32 2 4 C1.01 3.34 0.02 2.68 -1 2 C-4.14080143 2.19630009 -6.24556743 2.40723155 -8.75 4.375 C-9.89883928 5.86849106 -10.95481364 7.43222046 -12 9 C-12.75 6.75 -12.75 6.75 -13 4 C-10.02360464 -1.00575583 -5.27200966 -0.83497759 0 0 Z " fill="#171C26" transform="translate(266,227)"/>
<path d="M0 0 C0.33 0.99 0.66 1.98 1 3 C-0.08203125 4.48828125 -0.08203125 4.48828125 -2 6 C-5.13671875 6.29296875 -5.13671875 6.29296875 -8.6875 6.1875 C-10.45673828 6.14689453 -10.45673828 6.14689453 -12.26171875 6.10546875 C-13.61716797 6.05326172 -13.61716797 6.05326172 -15 6 C-15 5.67 -15 5.34 -15 5 C-11.37 5 -7.74 5 -4 5 C-3.34 3.68 -2.68 2.36 -2 1 C-1.34 0.67 -0.68 0.34 0 0 Z " fill="#070C16" transform="translate(141,295)"/>
<path d="M0 0 C0 0.66 0 1.32 0 2 C-0.845625 2.37125 -1.69125 2.7425 -2.5625 3.125 C-6.54683878 5.2982757 -9.66636184 7.95238405 -13 11 C-11.38718628 5.72170057 -8.51130479 3.43503131 -3.8125 0.75 C-2 0 -2 0 0 0 Z " fill="#00B295" transform="translate(51,185)"/>
<path d="M0 0 C0.33 0 0.66 0 1 0 C1 1.65 1 3.3 1 5 C-3.43076923 7.09230769 -3.43076923 7.09230769 -6.3125 6.625 C-6.869375 6.41875 -7.42625 6.2125 -8 6 C-7.05125 5.38125 -6.1025 4.7625 -5.125 4.125 C-2.05554891 2.18029031 -2.05554891 2.18029031 0 0 Z " fill="#0E1B26" transform="translate(362,256)"/>
<path d="M0 0 C0.66 0.33 1.32 0.66 2 1 C-1.465 3.97 -1.465 3.97 -5 7 C-5 5.68 -5 4.36 -5 3 C-2.625 1.1875 -2.625 1.1875 0 0 Z " fill="#3196AC" transform="translate(117,212)"/>
<path d="M0 0 C1.32 0 2.64 0 4 0 C4 0.99 4 1.98 4 3 C2.68 3 1.36 3 0 3 C0 2.01 0 1.02 0 0 Z " fill="#EFF0F4" transform="translate(409,302)"/>
<path d="M0 0 C1.32 0 2.64 0 4 0 C4 0.99 4 1.98 4 3 C2.68 3 1.36 3 0 3 C0 2.01 0 1.02 0 0 Z " fill="#EFF0F4" transform="translate(343,302)"/>
<path d="M0 0 C1.32 0 2.64 0 4 0 C4 0.99 4 1.98 4 3 C2.68 3 1.36 3 0 3 C0 2.01 0 1.02 0 0 Z " fill="#F1F2F6" transform="translate(302,302)"/>
<path d="M0 0 C1.32 0 2.64 0 4 0 C4 0.99 4 1.98 4 3 C2.68 3 1.36 3 0 3 C0 2.01 0 1.02 0 0 Z " fill="#EFF0F4" transform="translate(231,302)"/>
<path d="M0 0 C1.32 0 2.64 0 4 0 C4 0.99 4 1.98 4 3 C2.68 3 1.36 3 0 3 C0 2.01 0 1.02 0 0 Z " fill="#F1F2F6" transform="translate(174,302)"/>
</svg>
